<?xml version="1.0" standalone="no"?>
<!DOCTYPE svg PUBLIC "-//W3C//DTD SVG 20010904//EN"
 "http://www.w3.org/TR/2001/REC-SVG-20010904/DTD/svg10.dtd">
<svg version="1.0" xmlns="http://www.w3.org/2000/svg"
 width="300.000000pt" height="204.000000pt" viewBox="0 0 300.000000 204.000000"
 preserveAspectRatio="xMidYMid meet">
<metadata>
Created by potrace 1.10, written by Peter Selinger 2001-2011
</metadata>
<g transform="translate(0.000000,204.000000) scale(0.100000,-0.100000)"
fill="#000000" stroke="none">
<path d="M1321 1873 c-73 -18 -149 -59 -187 -101 -43 -47 -53 -87 -55 -225 -1
-83 1 -91 28 -130 26 -37 40 -74 56 -154 4 -19 1 -23 -18 -23 -13 0 -30 7 -39
15 -33 33 -65 19 -149 -66 -58 -59 -88 -82 -111 -86 -52 -8 -160 -64 -220
-113 -39 -32 -67 -68 -97 -123 -23 -42 -47 -77 -52 -77 -6 0 -18 -6 -26 -14
-9 -8 -66 -40 -128 -71 -62 -31 -124 -68 -137 -83 -54 -58 -66 -76 -70 -106
-14 -92 -20 -146 -20 -194 -1 -50 1 -55 44 -93 25 -21 55 -42 68 -45 12 -3 22
-9 22 -13 0 -12 74 -6 110 9 50 20 114 66 140 103 20 28 17 26 -24 -11 -26
-24 -74 -56 -107 -72 -52 -24 -65 -27 -97 -18 -56 15 -86 33 -121 73 -35 40
-39 73 -16 128 8 20 15 57 15 82 0 85 59 152 185 211 137 65 199 108 214 151
40 113 181 224 317 249 32 6 54 23 119 91 49 51 88 83 100 83 12 0 41 -18 65
-40 25 -23 55 -50 68 -61 16 -14 21 -26 17 -37 -4 -9 -11 -32 -15 -50 -5 -20
-26 -50 -52 -74 -23 -23 -37 -38 -30 -34 15 9 10 -5 -53 -142 -37 -80 -38 -85
-27 -140 10 -53 8 -67 -25 -191 l-36 -133 41 -132 c23 -72 44 -150 48 -173 10
-63 27 -54 20 10 -4 28 -7 72 -7 97 -1 38 -2 41 -8 15 -5 -26 -10 -18 -36 65
-16 52 -31 104 -33 115 -3 22 26 154 38 170 19 26 30 106 20 147 -15 66 -12
91 15 121 13 16 34 59 46 95 28 87 48 120 61 101 7 -12 8 -11 6 1 -1 8 3 24 9
35 6 11 16 46 23 78 12 53 18 61 37 55 12 -4 14 -120 3 -133 -5 -6 -11 -20
-13 -31 -13 -64 -51 -112 -74 -92 -9 8 -13 7 -14 -3 0 -8 -2 -22 -4 -31 -2
-10 1 -18 6 -18 5 0 9 6 9 13 0 6 9 1 19 -13 11 -13 17 -28 14 -33 -3 -5 5 -4
17 3 13 7 45 13 72 15 46 2 48 1 33 -14 -19 -22 -21 -151 -3 -169 7 -7 29 -12
50 -12 40 0 54 -19 16 -21 -18 0 -19 -2 -7 -7 14 -6 12 -13 -16 -50 -22 -27
-35 -38 -39 -30 -3 7 -3 3 -1 -9 3 -12 1 -24 -5 -28 -16 -10 -13 -120 5 -135
20 -17 259 -4 275 15 6 7 9 47 8 93 -2 47 -6 75 -11 66 -5 -9 -24 -14 -52 -14
l-44 0 17 30 c9 16 22 30 29 30 7 0 10 7 7 15 -4 9 0 15 10 15 9 0 15 3 15 8
-3 18 2 32 12 32 6 0 8 -17 4 -47 -4 -29 -3 -43 2 -36 6 9 13 2 22 -22 7 -19
17 -35 22 -35 6 0 8 -3 6 -8 -3 -4 20 -5 50 -4 39 3 53 1 49 -7 -4 -6 -16 -11
-27 -11 -10 0 -19 -4 -19 -10 0 -5 8 -10 17 -10 13 0 14 -3 5 -12 -16 -16 -15
-73 1 -86 8 -7 30 -6 69 1 47 8 58 14 66 36 17 46 44 190 37 201 -3 5 -2 10 4
10 5 0 12 -17 14 -37 l4 -38 1 38 c2 31 -2 39 -24 49 -25 12 -25 13 -22 105 3
107 4 106 -87 101 -42 -2 -55 -7 -55 -19 0 -8 -9 -25 -20 -37 -11 -12 -20 -24
-20 -27 0 -3 -17 -28 -37 -55 -39 -52 -59 -56 -49 -9 8 39 -17 87 -62 122 -34
26 -41 28 -114 24 -43 -2 -78 0 -78 5 0 4 9 8 20 8 12 0 32 11 45 24 13 13 26
21 29 18 3 -3 6 -1 6 5 0 11 55 14 254 17 109 1 131 -1 148 -16 29 -25 91 -44
96 -29 2 6 11 11 21 11 9 0 24 12 33 27 l16 26 7 -41 c3 -23 5 -45 2 -49 -2
-4 -1 -17 4 -28 4 -12 8 23 8 89 1 82 4 107 14 104 6 -3 37 -13 67 -23 74 -24
104 -47 156 -119 25 -34 61 -70 82 -82 45 -25 103 -111 83 -123 -17 -11 -17
-10 8 -56 11 -22 21 -47 21 -55 0 -8 10 -31 22 -50 11 -19 36 -65 54 -101 39
-78 75 -124 115 -144 25 -14 28 -14 23 0 -4 8 -12 15 -19 15 -6 0 -20 9 -30
20 -23 25 0 28 27 3 10 -9 21 -14 24 -11 2 3 -14 18 -38 33 -24 15 -55 45 -71
66 l-27 39 36 -15 c39 -16 91 -17 111 -2 7 5 20 7 28 3 9 -3 13 -2 10 4 -9 14
8 12 25 -2 12 -11 12 -10 0 5 -12 16 -11 18 14 13 15 -3 24 -1 21 5 -4 5 -12
7 -18 3 -7 -3 -3 1 7 10 21 17 40 11 32 -9 -7 -19 5 -27 20 -14 11 9 10 15 -9
29 -20 16 -38 78 -19 66 5 -3 9 1 9 9 0 8 -3 15 -6 15 -3 0 -7 16 -9 36 -1 19
-7 45 -13 56 -15 28 -5 33 13 6 28 -44 98 -230 98 -261 0 -17 3 -27 7 -23 10
10 12 59 3 71 -8 10 -52 119 -56 140 -6 29 -46 104 -67 126 -29 30 -129 121
-191 174 -48 41 -119 128 -147 180 -9 17 -26 35 -39 41 -12 7 -33 31 -47 55
-22 39 -60 85 -121 145 -22 21 -30 22 -118 19 -52 -3 -104 -9 -115 -16 -11 -6
-55 -12 -97 -14 -42 -2 -90 -6 -107 -10 -16 -3 -64 -8 -105 -11 l-75 -6 -17
31 c-14 26 -15 36 -6 57 10 21 9 28 -7 42 -18 16 -18 16 -6 0 20 -27 5 -55
-34 -62 -25 -5 -33 -11 -28 -22 7 -20 -33 -49 -69 -49 -15 0 -30 6 -33 13 -2
6 -12 12 -20 12 -10 0 -13 5 -9 12 4 6 3 8 -4 4 -12 -7 -78 29 -102 55 -9 10
-34 20 -55 23 -22 3 -33 3 -25 0 8 -4 23 -16 35 -26 11 -11 37 -28 58 -39 41
-22 49 -34 15 -24 -18 5 -20 4 -8 -4 8 -6 22 -8 30 -6 21 7 76 -10 71 -21 -3
-5 8 -12 25 -15 l29 -7 -30 -1 c-17 0 -45 3 -63 9 -29 8 -32 7 -22 -5 24 -29
184 -11 180 19 0 4 12 18 28 31 l29 24 12 -40 12 -40 72 6 c40 3 107 13 149
22 56 11 84 13 106 5 24 -8 35 -7 57 8 20 13 46 18 98 17 40 0 82 3 95 7 18 6
28 1 50 -25 15 -18 41 -47 58 -64 17 -16 41 -49 53 -73 12 -23 33 -48 46 -54
14 -6 38 -34 54 -63 18 -32 76 -96 155 -170 149 -140 185 -194 187 -280 2 -64
-17 -99 -67 -125 -16 -8 -31 -17 -34 -20 -23 -23 -130 9 -154 44 -29 44 -84
194 -80 217 5 30 -50 119 -77 126 -10 3 -19 9 -19 13 0 12 -148 169 -154 163
-3 -4 -14 1 -23 9 -10 9 -34 19 -53 23 -35 8 -94 45 -71 45 7 0 11 6 8 13 -2
6 0 20 5 30 8 16 11 16 38 2 17 -9 30 -13 30 -9 0 4 7 1 15 -6 8 -7 22 -10 30
-6 12 4 19 -3 28 -27 6 -17 10 -36 9 -40 -1 -5 2 -6 7 -3 6 4 6 18 0 39 -5 17
-9 33 -9 34 0 1 8 0 18 -4 9 -3 5 3 -10 15 -14 12 -30 22 -35 22 -4 0 -2 -4 5
-9 11 -7 11 -9 -1 -14 -10 -4 -14 0 -12 11 2 9 4 20 4 25 1 4 14 1 31 -8 16
-8 33 -15 37 -15 4 1 -7 9 -26 19 -24 13 -36 27 -38 46 -4 30 13 58 30 48 6
-3 7 -1 3 6 -4 6 -12 9 -17 6 -5 -4 -12 2 -16 12 -6 16 -8 15 -13 -7 -4 -14
-11 -24 -17 -23 -10 2 -9 -48 2 -83 10 -32 -11 -38 -33 -9 -13 16 -23 22 -27
15 -14 -22 -47 22 -43 57 3 25 0 33 -15 37 -15 4 -18 1 -13 -15 3 -10 9 -29
12 -41 6 -22 5 -22 -15 2 -11 14 -21 34 -23 45 -2 11 -12 21 -22 23 -14 3 -17
0 -13 -12 9 -23 -28 -21 -53 4 -11 11 -26 20 -32 20 -10 0 -9 -3 1 -9 8 -5 10
-14 6 -21 -5 -9 -4 -11 4 -6 6 4 14 1 17 -7 5 -14 42 -15 62 -3 12 7 35 -18
25 -27 -3 -4 -12 -2 -20 4 -9 8 -13 8 -13 1 0 -14 31 -31 48 -25 7 3 12 -4 12
-16 0 -11 5 -23 12 -27 6 -4 8 -3 4 4 -7 11 11 28 21 19 8 -9 -8 -48 -18 -42
-5 4 -9 -12 -9 -34 0 -23 -4 -41 -10 -41 -5 0 -10 18 -10 41 0 22 -6 46 -13
52 -24 23 -51 42 -45 32 3 -5 -5 -11 -18 -11 l-24 -2 23 19 c27 23 10 25 -22
3 -12 -9 -39 -18 -59 -21 l-37 -4 33 21 c37 26 39 29 12 27 -11 -1 -20 -6 -20
-11 0 -5 -3 -6 -7 -3 -3 4 -13 1 -22 -6 -18 -16 -51 -29 -51 -21 0 10 28 34
39 34 26 0 8 15 -18 16 -19 1 -28 -3 -25 -11 6 -15 -48 -25 -70 -13 -10 6 -16
5 -16 -2 0 -6 -15 -10 -32 -9 -18 1 -40 0 -48 -2 -8 -2 -14 2 -12 9 2 10 -2
10 -18 2 -12 -6 -26 -9 -33 -7 -7 2 -20 -2 -29 -11 -16 -14 -20 -13 -41 10
-22 24 -97 45 -117 33 -4 -3 -20 -1 -34 4 -20 8 -24 7 -20 -4 7 -17 -10 -14
-61 10 -22 11 -47 18 -57 17 -9 -2 -19 2 -23 8 -3 5 1 10 9 10 9 0 18 10 21
23 9 34 -41 182 -71 212 -23 23 -25 32 -21 73 3 26 7 80 10 120 6 93 34 132
131 181 95 47 173 53 243 18 28 -15 68 -48 92 -75 48 -58 50 -66 15 -47 -15 7
-33 11 -41 8 -17 -7 -6 -19 22 -26 11 -2 7 -3 -8 -2 -35 2 -40 -6 -26 -38 10
-21 15 -24 40 -17 19 6 29 4 33 -3 2 -7 5 -2 5 10 1 12 -4 25 -10 28 -6 5 -4
12 8 20 17 13 17 15 -2 51 -58 108 -168 157 -284 127z m275 -204 c4 -7 1 -10
-7 -7 -8 3 -22 1 -31 -4 -11 -5 -18 -5 -18 1 0 19 45 27 56 10z m-166 -529 c0
-5 -9 -19 -20 -30 -16 -16 -80 -150 -80 -169 0 -3 23 31 51 77 70 114 98 112
100 -6 l0 -57 20 55 c11 31 15 56 10 58 -6 2 -7 10 -4 18 4 11 37 14 175 14
103 0 177 -4 190 -11 14 -8 23 -8 31 0 15 15 72 14 85 -2 17 -19 4 -57 -16
-50 -15 6 -15 4 1 -14 9 -11 17 -29 17 -41 0 -12 5 -22 10 -22 20 0 10 -32
-19 -61 -16 -16 -40 -29 -53 -29 -38 0 -88 37 -95 70 -3 17 -10 33 -16 37 -6
4 -8 -3 -4 -18 11 -42 -2 -48 -88 -44 -44 2 -130 1 -192 -2 -106 -6 -112 -7
-117 -29 -5 -18 -15 -24 -49 -28 -91 -11 -167 -12 -167 -2 0 16 13 32 30 38
12 5 90 180 90 203 0 4 -7 5 -15 1 -16 -6 -20 11 -7 31 11 18 132 30 132 13z
m122 -377 c31 -33 35 -43 31 -75 -3 -21 -12 -43 -21 -50 -13 -11 -14 -11 -7 2
8 13 7 13 -8 1 -18 -15 -23 -26 -7 -16 6 3 10 4 10 0 0 -10 -73 -115 -77 -111
-3 2 3 16 12 30 10 14 15 26 12 26 -4 0 -18 -20 -71 -102 l-18 -28 46 0 c37 0
46 3 45 18 0 10 -3 12 -6 5 -2 -7 -17 -12 -31 -12 -24 2 -24 2 -4 6 12 2 22
10 22 18 0 8 17 14 48 17 26 3 48 4 50 3 1 -1 5 -31 8 -66 l6 -64 -131 -4
-131 -3 0 56 c0 56 23 112 40 101 5 -3 12 0 16 6 5 8 3 9 -6 4 -8 -5 -11 -3
-8 6 3 8 10 13 16 12 5 -1 16 5 24 15 12 15 11 16 -4 3 -26 -20 -22 -5 13 45
16 24 34 42 39 39 5 -3 12 0 16 6 5 8 3 9 -6 4 -8 -5 -11 -3 -8 6 3 8 10 14
16 14 19 0 25 14 12 30 -16 20 -44 19 -61 -2 -13 -15 -12 -15 7 -3 24 15 54 8
54 -12 0 -10 -3 -9 -9 1 -12 19 -41 6 -41 -19 0 -17 -6 -20 -39 -20 -22 0 -46
-3 -55 -6 -14 -5 -16 5 -16 75 l0 81 93 0 93 0 36 -37z m307 -54 c-1 -63 2
-93 10 -99 17 -10 4 -100 -14 -100 -7 0 -15 6 -18 13 -2 6 -4 1 -4 -13 0 -14
-3 -34 -8 -45 -6 -14 0 -11 20 10 21 21 27 24 21 10 -5 -11 -10 -27 -12 -35
-1 -8 -5 -27 -9 -42 -4 -21 -11 -28 -30 -28 -13 0 -36 -5 -51 -10 -15 -6 -28
-9 -30 -7 -2 2 -1 25 2 51 6 38 10 47 24 43 13 -3 15 2 12 24 -3 18 0 29 7 29
7 0 9 5 6 10 -3 6 -11 10 -16 10 -6 0 -8 -4 -5 -9 7 -10 -90 -25 -104 -16 -6
4 -19 24 -30 46 -22 42 -18 62 16 90 16 13 16 12 5 -8 -16 -31 -7 -29 14 3 9
15 12 23 6 20 -6 -4 -11 -3 -11 2 0 12 31 38 39 34 3 -2 12 7 20 20 12 21 12
21 -8 -2 -24 -30 -28 -20 -5 15 9 14 20 23 24 20 4 -3 7 3 6 12 -1 13 9 18 44
20 62 5 76 13 18 10 -27 -1 -48 1 -48 5 0 5 25 8 56 8 l55 0 -2 -91z m919 -65
c-4 -3 -12 5 -18 18 -12 22 -12 22 6 6 10 -10 15 -20 12 -24z m-1322 -162
c-18 -16 -18 -16 -6 6 6 13 14 21 18 18 3 -4 -2 -14 -12 -24z m1344 -36 c0 -2
-7 -7 -16 -10 -8 -3 -12 -2 -9 4 6 10 25 14 25 6z"/>
<path d="M1317 1123 c-4 -3 0 -11 8 -17 13 -9 10 -25 -24 -111 -22 -55 -49
-107 -60 -116 -20 -16 -16 -17 62 -12 78 5 99 13 109 44 2 5 30 12 64 15 56 6
60 8 57 28 -3 12 2 28 10 35 13 10 18 9 27 -9 9 -16 8 -25 -1 -36 -10 -12 1
-14 75 -14 67 0 86 3 86 14 0 12 -5 12 -30 3 -16 -6 -32 -8 -36 -5 -12 12 13
63 30 62 20 -2 21 12 1 20 -19 7 -19 17 -1 41 13 18 17 18 40 6 28 -15 34 -31
13 -31 -7 0 -18 -14 -24 -30 -8 -21 -16 -28 -27 -24 -12 4 -16 0 -16 -16 0
-22 1 -22 26 -5 14 9 32 14 39 11 9 -3 15 7 20 32 7 43 25 78 25 51 0 -29 -29
-112 -42 -120 -8 -6 -2 -9 18 -9 27 0 31 3 31 30 0 17 3 33 6 36 10 11 37 -17
37 -38 0 -54 97 -90 133 -50 24 26 21 46 -3 22 -37 -37 -82 -24 -111 32 l-20
40 22 24 c23 25 20 54 -7 54 -13 0 -14 -3 -5 -14 10 -12 8 -19 -11 -38 -20
-20 -23 -21 -26 -6 -2 9 2 26 7 37 9 17 8 20 -12 23 -12 2 -27 -4 -34 -12 -11
-13 -12 -13 -13 3 0 15 -11 17 -80 17 -61 0 -78 -3 -74 -13 5 -13 -52 -75 -61
-66 -2 3 4 22 14 42 l19 37 -28 0 c-22 0 -27 -4 -23 -18 5 -22 -29 -124 -44
-129 -6 -2 -13 23 -17 66 -4 39 -11 73 -16 76 -5 3 -25 -22 -45 -55 -20 -33
-49 -75 -63 -92 l-27 -32 25 7 c14 4 32 7 40 7 13 0 13 2 1 9 -23 15 -5 41 29
41 34 0 43 -26 13 -37 -10 -4 -21 -11 -24 -15 -3 -5 -34 -15 -69 -22 -58 -12
-61 -12 -43 3 10 9 34 57 52 106 18 50 42 98 53 108 20 17 19 17 -24 17 -25 0
-48 -3 -51 -7z m346 -86 c-3 -18 -12 -47 -20 -66 -11 -30 -16 -33 -26 -20 -8
8 -18 26 -25 41 -10 24 -8 29 24 58 41 36 56 32 47 -13z m-223 -17 c0 -28 -22
-51 -36 -37 -6 5 23 67 31 67 3 0 5 -14 5 -30z"/>
<path d="M1622 1037 c-20 -21 -21 -27 -11 -53 l12 -29 13 45 c18 57 14 67 -14
37z"/>
<path d="M1930 1083 c-46 -16 -42 -65 6 -83 27 -11 31 -32 9 -50 -19 -16 -43
-6 -55 22 -8 22 -9 22 -9 2 -2 -49 71 -63 91 -18 14 30 3 54 -30 69 -24 11
-30 41 -9 48 6 2 20 -2 30 -11 15 -14 17 -14 17 0 0 12 -24 32 -33 27 -1 0 -9
-3 -17 -6z"/>
<path d="M1569 1053 c-13 -16 -12 -17 4 -4 16 13 21 21 13 21 -2 0 -10 -8 -17
-17z"/>
<path d="M1700 1050 c0 -5 7 -10 15 -10 8 0 15 5 15 10 0 6 -7 10 -15 10 -8 0
-15 -4 -15 -10z"/>
<path d="M1826 1043 c-6 -14 -5 -15 5 -6 7 7 10 15 7 18 -3 3 -9 -2 -12 -12z"/>
<path d="M1930 1050 c0 -5 7 -10 16 -10 8 0 12 5 9 10 -3 6 -10 10 -16 10 -5
0 -9 -4 -9 -10z"/>
<path d="M1871 1017 c-6 -6 -11 -18 -10 -26 0 -11 2 -12 6 -3 6 16 33 15 33
-2 0 -24 26 -38 40 -21 9 11 9 15 1 15 -7 0 -23 11 -36 24 -17 17 -27 20 -34
13z"/>
<path d="M1546 971 c-4 -7 -5 -15 -2 -18 9 -9 19 4 14 18 -4 11 -6 11 -12 0z"/>
<path d="M1395 950 c-19 -8 -19 -9 3 -9 12 -1 22 4 22 9 0 6 -1 10 -2 9 -2 0
-12 -4 -23 -9z"/>
<path d="M1374 783 c3 -3 33 -5 68 -4 57 1 65 -1 97 -31 l36 -33 -34 37 c-34
37 -36 38 -103 37 -38 -1 -67 -4 -64 -6z"/>
<path d="M1341 744 c0 -11 3 -14 6 -6 3 7 2 16 -1 19 -3 4 -6 -2 -5 -13z"/>
<path d="M1386 715 c-3 -8 -1 -15 4 -15 6 0 10 7 10 15 0 8 -2 15 -4 15 -2 0
-6 -7 -10 -15z"/>
<path d="M1443 618 c-15 -20 -25 -38 -20 -38 3 0 12 11 21 25 17 26 16 35 -1
13z"/>
<path d="M1518 473 c7 -3 16 -2 19 1 4 3 -2 6 -13 5 -11 0 -14 -3 -6 -6z"/>
<path d="M1341 424 c0 -11 3 -14 6 -6 3 7 2 16 -1 19 -3 4 -6 -2 -5 -13z"/>
<path d="M1403 373 c9 -2 23 -2 30 0 6 3 -1 5 -18 5 -16 0 -22 -2 -12 -5z"/>
<path d="M1761 668 c-16 -42 -32 -73 -26 -53 4 18 3 17 -15 -4 -11 -13 -19
-25 -18 -26 2 -1 19 0 38 2 34 5 35 5 37 54 1 54 -3 61 -16 27z"/>
<path d="M1840 600 c0 -5 5 -10 11 -10 5 0 7 5 4 10 -3 6 -8 10 -11 10 -2 0
-4 -4 -4 -10z"/>
<path d="M1810 560 c0 -5 5 -10 10 -10 6 0 10 5 10 10 0 6 -4 10 -10 10 -5 0
-10 -4 -10 -10z"/>
<path d="M1453 1806 c7 -14 18 -28 25 -31 16 -6 0 26 -22 44 -13 11 -13 9 -3
-13z"/>
<path d="M1394 1785 c8 -8 17 -15 20 -15 3 0 3 7 0 15 -4 8 -13 15 -21 15 -12
0 -12 -2 1 -15z"/>
<path d="M1238 1777 c11 -13 1 -40 -14 -37 -5 1 -9 -3 -10 -9 -2 -8 -1 -8 3
-1 3 7 10 7 20 -1 11 -10 14 -10 11 2 -2 9 4 13 15 11 16 -3 15 0 -4 22 -23
26 -41 37 -21 13z"/>
<path d="M1295 1730 c3 -5 10 -10 16 -10 5 0 9 5 9 10 0 6 -7 10 -16 10 -8 0
-12 -4 -9 -10z"/>
<path d="M1390 1732 c-36 -4 -60 -17 -60 -34 0 -5 9 -4 19 2 25 13 108 13 116
0 4 -7 -7 -8 -32 -5 -24 4 -51 1 -75 -9 -42 -18 -50 -28 -42 -50 5 -13 10 -13
27 -4 12 6 25 16 30 22 5 8 10 7 16 -3 8 -12 12 -12 24 -2 13 10 18 8 31 -11
12 -17 16 -18 16 -6 0 23 -43 48 -70 41 -17 -5 -21 -3 -15 6 10 17 59 7 84
-18 11 -11 17 -22 14 -25 -4 -3 -1 -6 6 -6 9 0 11 9 6 30 -5 21 -3 30 6 30 19
0 -21 37 -46 42 -11 3 -36 3 -55 0z m-21 -65 c-2 -1 -13 -9 -24 -17 -19 -14
-19 -14 -6 3 7 9 18 17 24 17 6 0 8 -1 6 -3z"/>
<path d="M1160 1704 c0 -8 5 -12 10 -9 6 4 8 11 5 16 -9 14 -15 11 -15 -7z"/>
<path d="M1259 1703 c-13 -17 -13 -17 6 -3 11 8 22 16 24 17 2 2 0 3 -6 3 -6
0 -17 -8 -24 -17z"/>
<path d="M1217 1693 c3 -7 -2 -16 -11 -19 -9 -3 -16 -16 -15 -28 0 -13 3 -16
6 -7 3 7 14 22 24 32 23 23 24 36 5 36 -8 0 -12 -6 -9 -14z"/>
<path d="M1620 1651 c0 -22 5 -52 11 -68 12 -32 15 -112 6 -163 l-7 -35 16 40
c20 53 20 142 -2 177 -4 6 -7 26 -6 44 1 18 -3 36 -8 39 -6 4 -10 -11 -10 -34z"/>
<path d="M1506 1647 c3 -10 9 -15 12 -12 3 3 0 11 -7 18 -10 9 -11 8 -5 -6z"/>
<path d="M1380 1621 c0 -5 10 -11 23 -15 33 -9 37 -8 37 9 0 10 -10 15 -30 15
-16 0 -30 -4 -30 -9z"/>
<path d="M1570 1620 c20 -13 33 -13 25 0 -3 6 -14 10 -23 10 -15 0 -15 -2 -2
-10z"/>
<path d="M1510 1616 c0 -2 7 -7 16 -10 8 -3 12 -2 9 4 -6 10 -25 14 -25 6z"/>
<path d="M1138 1592 c-10 -2 -18 -8 -18 -13 0 -6 8 -9 18 -8 9 1 25 -1 35 -6
27 -11 31 0 5 17 -13 8 -31 12 -40 10z"/>
<path d="M1460 1568 c-10 -18 -17 -35 -13 -38 3 -3 8 1 11 9 3 8 15 25 28 38
17 16 19 23 8 23 -8 0 -23 -14 -34 -32z"/>
<path d="M1545 1570 c3 -5 8 -10 11 -10 2 0 4 5 4 10 0 6 -5 10 -11 10 -5 0
-7 -4 -4 -10z"/>
<path d="M1480 1551 c-7 -13 -7 -22 0 -26 5 -3 10 -2 10 4 0 5 19 9 42 8 35
-2 43 1 46 18 4 20 4 20 -16 1 -12 -10 -27 -16 -34 -13 -11 4 -11 6 0 6 20 1
3 21 -18 21 -11 0 -24 -9 -30 -19z"/>
<path d="M1598 1563 c7 -3 16 -2 19 1 4 3 -2 6 -13 5 -11 0 -14 -3 -6 -6z"/>
<path d="M1106 1544 c-9 -23 -8 -42 2 -28 4 7 16 14 27 16 20 4 19 4 -2 16
-17 10 -22 9 -27 -4z"/>
<path d="M1200 1542 c0 -5 7 -17 16 -28 14 -17 15 -17 10 -1 -3 10 -6 23 -6
28 0 5 -4 9 -10 9 -5 0 -10 -4 -10 -8z"/>
<path d="M1350 1540 c0 -5 14 -10 30 -10 17 0 30 4 30 8 0 4 -13 9 -30 10 -16
1 -30 -2 -30 -8z"/>
<path d="M1141 1516 c-22 -24 -28 -56 -10 -56 5 0 7 5 4 10 -3 6 5 14 18 19
13 5 27 16 30 24 10 25 -19 27 -42 3z"/>
<path d="M1315 1530 c3 -5 1 -10 -5 -10 -6 0 -8 -5 -5 -10 4 -6 10 -8 15 -5
14 9 23 -16 11 -28 -8 -8 -11 -8 -11 0 0 6 -7 13 -14 16 -10 4 -13 1 -10 -8 8
-20 40 -28 64 -15 20 11 20 12 -11 41 -32 29 -45 37 -34 19z"/>
<path d="M1246 1512 c-3 -5 1 -9 9 -9 8 0 15 4 15 9 0 4 -4 8 -9 8 -6 0 -12
-4 -15 -8z"/>
<path d="M1557 1513 c-3 -5 1 -14 9 -21 12 -10 14 -10 14 2 0 17 -16 30 -23
19z"/>
<path d="M1477 1488 c-24 -25 -16 -35 9 -11 9 10 21 18 25 18 4 0 11 3 15 8 4
4 -1 7 -12 6 -10 0 -27 -10 -37 -21z"/>
<path d="M1170 1480 c0 -5 5 -10 10 -10 6 0 10 5 10 10 0 6 -4 10 -10 10 -5 0
-10 -4 -10 -10z"/>
<path d="M1526 1470 c-20 -21 -23 -20 42 -21 26 0 30 -16 5 -21 -15 -3 -14 -5
5 -10 17 -5 22 -2 22 14 0 17 -36 58 -50 57 -3 0 -13 -9 -24 -19z"/>
<path d="M1617 1473 c-4 -3 -7 -13 -7 -22 1 -13 3 -13 11 2 11 19 8 33 -4 20z"/>
<path d="M1479 1459 c0 -2 -2 -11 -4 -20 -2 -12 2 -15 17 -11 11 2 16 8 11 11
-4 3 -11 10 -15 15 -5 5 -8 7 -9 5z"/>
<path d="M1157 1434 c-3 -4 0 -13 8 -20 7 -8 15 -19 18 -26 6 -17 14 -9 22 25
6 24 4 27 -17 27 -14 0 -27 -3 -31 -6z"/>
<path d="M1518 1426 c-22 -16 -23 -23 -3 -23 8 0 15 7 15 14 0 8 5 11 10 8 6
-3 10 -1 10 4 0 14 -11 13 -32 -3z"/>
<path d="M1540 1391 c0 -11 -6 -21 -12 -24 -21 -7 -1 -19 20 -13 25 8 37 37
20 48 -20 12 -28 9 -28 -11z"/>
<path d="M1285 1390 c-3 -5 -1 -10 4 -10 6 0 11 5 11 10 0 6 -2 10 -4 10 -3 0
-8 -4 -11 -10z"/>
<path d="M1423 1375 c-7 -8 -13 -20 -13 -27 0 -10 2 -10 9 1 5 7 13 11 18 8
13 -8 37 9 29 22 -10 15 -28 13 -43 -4z"/>
<path d="M1485 1360 c3 -5 8 -10 11 -10 2 0 4 5 4 10 0 6 -5 10 -11 10 -5 0
-7 -4 -4 -10z"/>
<path d="M1446 1295 c10 -8 23 -15 28 -15 6 0 1 7 -10 15 -10 8 -23 15 -28 15
-6 0 -1 -7 10 -15z"/>
<path d="M1275 1230 c6 -10 1 -11 -19 -6 -36 9 -33 0 4 -13 20 -6 28 -7 25 0
-4 6 4 8 22 4 15 -3 21 -2 13 1 -8 4 -23 11 -34 16 -14 8 -17 7 -11 -2z"/>
<path d="M2035 1231 c-26 -6 -27 -8 -9 -13 11 -3 29 1 39 8 20 15 17 15 -30 5z"/>
<path d="M2113 1217 c-23 -17 -30 -28 -27 -51 4 -37 14 -47 14 -12 0 24 2 25
20 16 16 -9 20 -8 20 5 0 9 -9 15 -22 15 -22 1 -21 2 7 25 38 31 29 33 -12 2z"/>
<path d="M1040 1221 c0 -8 33 -39 119 -112 21 -18 32 -22 35 -13 3 7 -14 24
-36 39 -22 15 -54 42 -72 61 -31 34 -46 42 -46 25z"/>
<path d="M1530 1204 c-37 -14 -23 -18 29 -8 17 4 28 10 25 15 -6 11 -9 10 -54
-7z"/>
<path d="M1552 1181 c-10 -6 -9 -10 7 -14 13 -3 19 -1 15 5 -5 7 2 9 19 6 15
-3 24 -1 21 3 -7 11 -45 11 -62 0z"/>
<path d="M2236 1182 c-3 -6 2 -16 13 -21 10 -6 21 -18 25 -26 3 -9 2 -13 -4
-10 -6 3 -10 1 -10 -4 0 -6 9 -11 21 -11 15 0 19 -5 15 -16 -4 -9 -2 -13 5 -8
6 3 22 -6 36 -22 22 -26 23 -26 10 -4 -8 14 -24 37 -35 50 -12 14 -32 38 -45
54 -15 19 -26 25 -31 18z"/>
<path d="M1654 1172 c4 -3 14 -7 22 -8 9 -1 13 0 10 4 -4 3 -14 7 -22 8 -9 1
-13 0 -10 -4z"/>
<path d="M1721 1164 c0 -11 3 -14 6 -6 3 7 2 16 -1 19 -3 4 -6 -2 -5 -13z"/>
<path d="M1004 1127 c-50 -60 -51 -61 -27 -55 13 4 27 0 34 -8 6 -8 15 -11 20
-8 16 10 22 -26 7 -44 -8 -9 -18 -25 -21 -34 -5 -15 -4 -16 14 -5 16 10 21 9
28 -2 7 -11 11 -10 20 7 17 32 13 49 -16 72 -18 14 -21 20 -9 16 14 -5 17 -2
12 10 -3 8 -6 20 -6 25 0 5 -6 9 -13 9 -8 0 -13 -8 -13 -17 1 -10 -3 -19 -9
-20 -5 -1 -9 5 -9 12 1 8 -2 12 -7 9 -5 -3 -9 0 -9 6 0 6 11 15 25 22 13 6 22
15 19 19 -8 14 -19 10 -40 -14z m66 -121 c0 -2 -7 -7 -16 -10 -8 -3 -12 -2 -9
4 6 10 25 14 25 6z"/>
<path d="M1103 1107 c26 -24 47 -46 47 -51 0 -4 -4 -5 -8 -2 -14 8 -38 -12
-27 -23 7 -6 18 -3 34 10 l24 20 -49 44 c-27 24 -53 44 -59 44 -5 0 11 -19 38
-42z"/>
<path d="M2228 1123 c7 -3 16 -2 19 1 4 3 -2 6 -13 5 -11 0 -14 -3 -6 -6z"/>
<path d="M829 1022 c-24 -29 -119 -95 -174 -122 -34 -17 -87 -61 -81 -67 4 -4
118 69 209 135 22 15 48 39 59 55 25 35 18 35 -13 -1z"/>
<path d="M1224 1034 c-4 -10 -9 -22 -11 -26 -2 -5 0 -8 5 -8 10 0 24 41 17 48
-3 3 -8 -4 -11 -14z"/>
<path d="M1000 1025 c-7 -9 -8 -15 -2 -15 5 0 12 7 16 15 3 8 4 15 2 15 -2 0
-9 -7 -16 -15z"/>
<path d="M2322 1027 c-7 -8 -8 -18 -4 -22 4 -5 -2 -5 -12 -1 -19 7 -19 6 -1
-14 20 -22 30 -27 19 -9 -3 6 0 15 7 20 22 14 33 10 19 -6 -7 -8 -10 -15 -7
-15 2 0 10 6 16 13 8 11 6 18 -8 31 -15 14 -20 14 -29 3z"/>
<path d="M877 1003 c-4 -3 -7 -18 -7 -32 0 -19 3 -22 9 -12 9 14 31 7 31 -10
0 -6 -5 -7 -11 -3 -8 5 -8 1 0 -14 15 -29 26 -33 52 -23 l24 8 -22 7 c-13 4
-33 25 -46 47 -13 21 -27 36 -30 32z m54 -80 c13 -16 12 -17 -3 -4 -10 7 -18
15 -18 17 0 8 8 3 21 -13z"/>
<path d="M970 1001 c0 -5 5 -13 10 -16 6 -3 10 -2 10 4 0 5 -4 13 -10 16 -5 3
-10 2 -10 -4z"/>
<path d="M780 938 c-130 -120 -160 -149 -159 -154 0 -3 -8 -12 -18 -19 -10 -7
-15 -17 -10 -21 4 -4 7 -2 7 4 0 7 7 12 15 12 8 0 15 4 15 9 0 5 24 31 52 58
108 99 162 153 152 153 -5 0 -29 -19 -54 -42z"/>
<path d="M674 963 c14 -4 9 -9 -24 -24 -24 -11 -41 -21 -38 -24 7 -7 88 34 88
45 0 6 -10 9 -22 9 -19 -1 -20 -2 -4 -6z"/>
<path d="M2366 948 c10 -14 21 -24 23 -22 3 3 -6 15 -18 27 l-24 22 19 -27z"/>
<path d="M1057 893 c-4 -41 -17 -82 -46 -137 -23 -43 -41 -85 -41 -92 0 -8 -4
-14 -8 -14 -4 0 -16 -14 -26 -31 -11 -18 -23 -28 -32 -25 -8 3 -14 -1 -14 -11
0 -9 -3 -13 -6 -10 -4 3 -15 -4 -25 -17 -24 -31 -82 -58 -106 -49 -16 6 -16 5
-4 -10 7 -9 19 -17 25 -17 24 1 136 81 170 123 34 41 176 344 155 331 -5 -3
-16 -1 -23 5 -11 9 -14 0 -19 -46z"/>
<path d="M987 933 c-10 -9 -9 -23 1 -23 5 0 17 7 28 15 19 14 19 14 -2 15 -11
0 -24 -3 -27 -7z"/>
<path d="M2404 922 c4 -7 2 -21 -5 -30 -12 -15 -11 -15 6 0 16 15 17 20 6 30
-11 11 -13 10 -7 0z"/>
<path d="M755 864 c-9 -15 -12 -23 -6 -20 11 7 35 46 28 46 -3 0 -12 -12 -22
-26z"/>
<path d="M2440 882 c0 -12 19 -26 26 -19 2 2 -2 10 -11 17 -9 8 -15 8 -15 2z"/>
<path d="M880 850 c-6 -10 -57 -74 -113 -140 -94 -109 -165 -215 -154 -227 3
-2 19 20 37 49 18 29 38 56 44 60 6 5 7 8 1 8 -7 0 -7 3 0 8 6 4 35 36 65 72
30 35 65 77 78 91 24 28 65 99 57 99 -2 0 -9 -9 -15 -20z"/>
<path d="M2479 858 c-6 -18 -3 -46 4 -41 10 6 56 -45 57 -64 0 -7 4 -13 10
-13 5 0 2 16 -7 35 -9 19 -21 35 -25 35 -5 0 -7 4 -4 9 3 5 -4 11 -17 15 -18
5 -20 8 -7 16 10 6 11 10 3 10 -7 0 -13 -1 -14 -2z"/>
<path d="M1154 822 c-12 -8 -26 -55 -14 -47 5 3 10 -1 13 -7 2 -7 6 4 8 25 3
20 5 37 4 37 0 0 -5 -4 -11 -8z"/>
<path d="M2070 826 c0 -2 7 -6 15 -10 8 -3 15 -1 15 4 0 6 -7 10 -15 10 -8 0
-15 -2 -15 -4z"/>
<path d="M2571 804 c13 -17 26 -30 28 -27 3 2 -8 16 -24 31 l-28 27 24 -31z"/>
<path d="M2110 811 c0 -5 11 -8 25 -8 30 0 28 6 -4 12 -11 2 -21 0 -21 -4z"/>
<path d="M2195 811 c3 -5 -3 -12 -12 -14 -14 -4 -13 -5 4 -6 12 0 24 -7 26
-13 4 -10 6 -10 6 -1 1 7 8 10 16 7 8 -4 15 -1 15 5 0 6 -9 11 -20 11 -11 0
-20 5 -20 10 0 6 -5 10 -11 10 -5 0 -8 -4 -4 -9z"/>
<path d="M898 794 c-4 -5 -6 -25 -6 -43 1 -25 3 -29 10 -17 11 19 7 77 -4 60z"/>
<path d="M1890 755 c0 -8 2 -15 4 -15 2 0 6 7 10 15 3 8 1 15 -4 15 -6 0 -10
-7 -10 -15z"/>
<path d="M2071 754 c0 -11 3 -14 6 -6 3 7 2 16 -1 19 -3 4 -6 -2 -5 -13z"/>
<path d="M1630 749 c0 -5 5 -7 10 -4 6 3 10 8 10 11 0 2 -4 4 -10 4 -5 0 -10
-5 -10 -11z"/>
<path d="M2041 744 c0 -11 3 -14 6 -6 3 7 2 16 -1 19 -3 4 -6 -2 -5 -13z"/>
<path d="M2639 745 c5 -11 21 -33 35 -49 15 -16 26 -33 26 -37 0 -4 18 -29 40
-54 22 -25 40 -43 40 -40 0 10 -32 69 -46 85 -49 58 -104 112 -95 95z"/>
<path d="M493 732 c-10 -10 -31 -26 -46 -35 -15 -10 -25 -22 -22 -27 3 -5 16
0 28 10 47 42 56 48 74 52 17 3 17 4 1 10 -11 5 -25 1 -35 -10z"/>
<path d="M1142 720 c0 -19 2 -27 5 -17 2 9 2 25 0 35 -3 9 -5 1 -5 -18z"/>
<path d="M2270 736 c0 -2 7 -7 16 -10 8 -3 12 -2 9 4 -6 10 -25 14 -25 6z"/>
<path d="M548 717 c-40 -38 -151 -119 -166 -121 -9 -2 -17 -7 -17 -12 0 -17
-16 -34 -26 -29 -5 4 -14 3 -20 -1 -8 -5 -8 -9 1 -14 8 -5 2 -10 -19 -15 -17
-3 -31 -11 -31 -15 0 -5 6 -7 13 -4 8 3 13 -3 13 -16 0 -19 -9 -25 -31 -20 -5
1 -5 -4 2 -11 10 -10 15 -10 27 0 9 7 14 17 13 21 -2 9 92 100 104 100 4 0 11
9 14 20 4 11 10 18 15 15 4 -3 19 6 31 20 13 13 29 25 34 25 6 0 21 14 34 30
13 16 27 27 32 24 5 -3 9 0 9 5 0 15 -16 14 -32 -2z"/>
<path d="M2167 713 c-4 -3 -7 -11 -7 -17 0 -6 5 -5 12 2 6 6 9 14 7 17 -3 3
-9 2 -12 -2z"/>
<path d="M635 690 c-10 -11 -14 -20 -9 -20 5 0 15 9 22 20 7 11 11 20 9 20 -2
0 -12 -9 -22 -20z"/>
<path d="M813 673 c-10 -34 -10 -36 3 -19 12 17 20 56 11 56 -1 0 -7 -17 -14
-37z"/>
<path d="M2072 676 c1 -19 5 -33 8 -31 7 4 1 65 -6 65 -3 0 -4 -15 -2 -34z"/>
<path d="M2600 701 c0 -7 -5 -9 -12 -5 -7 5 -8 3 -3 -5 5 -9 10 -10 18 -2 6 6
8 14 4 18 -4 3 -7 1 -7 -6z"/>
<path d="M2312 679 c7 -5 23 -6 34 -3 12 3 25 1 28 -5 4 -6 12 -11 18 -11 7 0
6 5 -2 15 -8 9 -27 14 -52 13 -24 -1 -34 -4 -26 -9z"/>
<path d="M857 655 c-3 -16 0 -24 7 -22 14 4 21 47 8 47 -5 0 -12 -11 -15 -25z"/>
<path d="M378 649 c-16 -11 -28 -26 -28 -32 1 -7 6 -6 13 4 7 8 20 18 30 22 9
3 17 11 17 17 0 13 0 13 -32 -11z"/>
<path d="M1132 645 c0 -16 2 -22 5 -12 2 9 2 23 0 30 -3 6 -5 -1 -5 -18z"/>
<path d="M586 633 l-17 -28 19 22 c11 12 23 19 27 15 5 -4 5 -1 1 6 -10 17
-11 16 -30 -15z"/>
<path d="M1000 655 c-5 -17 -8 -29 -9 -43 0 -7 -6 -10 -13 -6 -7 4 -8 3 -4 -5
4 -7 -3 -26 -16 -44 -40 -53 -43 -61 -20 -48 29 15 74 100 69 131 -2 14 -5 21
-7 15z"/>
<path d="M2195 640 c-3 -5 -1 -10 4 -10 6 0 11 5 11 10 0 6 -2 10 -4 10 -3 0
-8 -4 -11 -10z"/>
<path d="M518 633 c-10 -2 -18 -8 -18 -13 0 -5 -3 -17 -6 -27 -5 -15 -4 -15 7
2 7 11 20 25 28 32 17 13 16 13 -11 6z"/>
<path d="M1890 630 c0 -5 5 -10 10 -10 6 0 10 5 10 10 0 6 -4 10 -10 10 -5 0
-10 -4 -10 -10z"/>
<path d="M782 605 c-10 -21 -9 -25 4 -25 9 0 12 5 8 11 -3 6 -1 15 6 19 7 4 8
10 3 13 -6 4 -15 -5 -21 -18z"/>
<path d="M315 610 c-3 -5 -1 -10 4 -10 6 0 11 5 11 10 0 6 -2 10 -4 10 -3 0
-8 -4 -11 -10z"/>
<path d="M290 603 c0 -7 -7 -13 -15 -13 -8 0 -15 -7 -15 -15 0 -9 -6 -12 -17
-8 -10 3 -15 3 -11 -2 4 -4 1 -14 -7 -22 -21 -20 -19 -39 2 -22 10 8 24 20 33
26 8 7 23 18 32 25 13 9 15 17 8 28 -6 10 -10 11 -10 3z"/>
<path d="M630 595 c-7 -9 -8 -15 -2 -15 5 0 12 7 16 15 3 8 4 15 2 15 -2 0 -9
-7 -16 -15z"/>
<path d="M1119 588 c0 -13 -4 -47 -8 -76 -4 -29 -4 -49 0 -45 9 10 23 143 15
143 -3 0 -6 -10 -7 -22z"/>
<path d="M2062 590 c0 -14 2 -19 5 -12 2 6 2 18 0 25 -3 6 -5 1 -5 -13z"/>
<path d="M2686 565 c4 -8 7 -15 9 -15 2 0 5 7 9 15 3 9 0 15 -9 15 -9 0 -12
-6 -9 -15z"/>
<path d="M705 560 c3 -5 8 -10 11 -10 2 0 4 5 4 10 0 6 -5 10 -11 10 -5 0 -7
-4 -4 -10z"/>
<path d="M1007 563 c-4 -3 -7 -11 -7 -17 0 -6 5 -5 12 2 6 6 9 14 7 17 -3 3
-9 2 -12 -2z"/>
<path d="M919 543 c-13 -16 -12 -17 4 -4 16 13 21 21 13 21 -2 0 -10 -8 -17
-17z"/>
<path d="M2081 549 c0 -13 25 -35 142 -126 50 -39 117 -76 124 -69 3 2 -10 12
-29 22 -39 20 -90 58 -175 132 -35 30 -63 48 -62 41z"/>
<path d="M457 543 c-10 -9 -9 -23 1 -23 5 0 9 7 9 15 0 17 -1 18 -10 8z"/>
<path d="M990 521 c0 -6 4 -13 10 -16 6 -3 7 1 4 9 -7 18 -14 21 -14 7z"/>
<path d="M871 506 c-8 -10 -8 -16 3 -25 10 -9 16 -7 27 6 12 16 12 17 -2 6
-19 -16 -33 -5 -18 14 6 7 9 13 6 13 -2 0 -10 -6 -16 -14z"/>
<path d="M715 500 c-4 -6 -1 -34 6 -63 7 -29 12 -55 11 -59 -1 -5 5 -8 14 -8
14 0 14 -2 -1 -17 -13 -12 -15 -26 -11 -57 4 -23 8 -52 10 -66 2 -16 9 -25 20
-25 17 0 36 -21 36 -39 0 -6 -7 -1 -16 10 -15 19 -16 19 -9 -1 4 -11 7 -27 6
-35 -3 -49 -2 -101 4 -119 11 -34 27 -24 20 12 -4 21 0 48 10 75 l17 42 -42
70 -43 71 19 39 c10 21 22 36 26 34 13 -8 9 2 -29 73 -44 82 -39 77 -48 63z
m92 -372 c-3 -8 -6 -5 -6 6 -1 11 2 17 5 13 3 -3 4 -12 1 -19z"/>
<path d="M250 491 c0 -7 -4 -10 -9 -7 -5 3 -14 -1 -20 -8 -10 -12 -8 -13 9 -9
22 6 35 21 26 30 -3 4 -6 1 -6 -6z"/>
<path d="M933 481 c-3 -14 -11 -20 -20 -17 -8 3 -11 1 -8 -4 3 -6 3 -15 -1
-21 -5 -8 -9 -8 -14 1 -5 8 -10 3 -14 -13 -7 -29 -39 -47 -34 -19 2 12 -3 16
-16 14 -17 -3 -18 -2 -7 12 12 14 11 16 -3 10 -9 -3 -16 -1 -16 5 0 6 4 11 8
11 5 0 17 7 28 15 15 12 11 12 -18 -1 l-37 -17 20 -38 c23 -46 24 -63 4 -79
-8 -7 -15 -24 -15 -37 0 -31 39 -103 55 -103 16 0 14 -61 -2 -78 -17 -18 -16
-30 10 -80 l23 -43 -2 51 c-1 28 -5 54 -9 58 -4 4 -4 -4 -1 -18 6 -21 5 -22
-4 -8 -8 13 -8 24 0 37 5 11 7 27 3 37 -4 12 -3 15 5 10 14 -8 6 18 -14 48 -7
10 -10 24 -8 31 3 7 0 16 -7 21 -8 5 -10 3 -4 -7 8 -12 6 -12 -8 0 -23 18 -22
58 2 70 10 6 20 8 23 6 2 -2 4 4 4 14 0 13 -5 17 -16 13 -8 -3 9 16 38 42 54
50 78 83 67 94 -3 3 -8 -4 -12 -17z"/>
<path d="M1051 484 c0 -11 3 -14 6 -6 3 7 2 16 -1 19 -3 4 -6 -2 -5 -13z"/>
<path d="M176 473 c-6 -14 -5 -15 5 -6 7 7 10 15 7 18 -3 3 -9 -2 -12 -12z"/>
<path d="M369 463 c-13 -15 -17 -22 -8 -15 9 6 20 8 24 4 5 -4 5 -2 1 5 -3 6
2 16 11 22 10 6 13 11 7 11 -6 0 -21 -12 -35 -27z"/>
<path d="M475 480 c-3 -5 -1 -10 4 -10 6 0 11 5 11 10 0 6 -2 10 -4 10 -3 0
-8 -4 -11 -10z"/>
<path d="M970 478 c0 -4 4 -8 9 -8 6 0 12 4 15 8 3 5 -1 9 -9 9 -8 0 -15 -4
-15 -9z"/>
<path d="M640 474 c0 -5 -10 -15 -21 -23 -20 -12 -21 -11 -15 6 6 14 5 16 -5
6 -10 -10 -10 -16 -1 -25 10 -10 17 -7 34 10 12 12 19 25 15 28 -4 4 -7 3 -7
-2z"/>
<path d="M845 451 c-3 -5 -2 -12 3 -15 5 -3 9 1 9 9 0 17 -3 19 -12 6z"/>
<path d="M2260 446 c0 -2 7 -6 15 -10 8 -3 15 -1 15 4 0 6 -7 10 -15 10 -8 0
-15 -2 -15 -4z"/>
<path d="M575 420 c-3 -5 -1 -10 4 -10 6 0 11 5 11 10 0 6 -2 10 -4 10 -3 0
-8 -4 -11 -10z"/>
<path d="M888 375 c-8 -19 -11 -32 -6 -29 10 7 31 55 25 60 -2 2 -10 -12 -19
-31z"/>
<path d="M1282 390 c0 -14 2 -19 5 -12 2 6 2 18 0 25 -3 6 -5 1 -5 -13z"/>
<path d="M170 391 c0 -6 5 -11 11 -11 5 0 7 -4 4 -10 -3 -5 -1 -10 4 -10 16 0
13 16 -4 30 -10 9 -15 9 -15 1z"/>
<path d="M1636 383 c-6 -14 -5 -15 5 -6 7 7 10 15 7 18 -3 3 -9 -2 -12 -12z"/>
<path d="M1677 380 c3 -11 7 -20 9 -20 2 0 4 9 4 20 0 11 -4 20 -9 20 -5 0 -7
-9 -4 -20z"/>
<path d="M936 365 c-3 -9 -1 -26 6 -38 10 -21 10 -21 -7 -7 -17 14 -18 14 -6
-7 8 -15 8 -23 1 -23 -6 0 -4 -15 6 -37 9 -21 18 -47 21 -58 4 -16 3 -17 -6
-5 -8 11 -11 11 -11 2 0 -7 6 -15 14 -18 9 -3 12 -12 9 -21 -4 -10 -2 -14 4
-10 6 4 10 -8 9 -31 -1 -21 -6 -36 -13 -35 -7 1 -9 -6 -5 -19 l5 -22 8 22 c14
37 37 21 30 -20 0 -5 5 -8 12 -8 8 0 7 -3 -3 -10 -12 -8 -12 -10 3 -16 10 -3
19 -5 21 -3 2 2 -17 66 -42 142 -41 122 -45 142 -34 169 9 24 8 35 -2 50 -12
17 -14 17 -20 3z m19 -15 c3 -5 1 -10 -4 -10 -6 0 -11 5 -11 10 0 6 2 10 4 10
3 0 8 -4 11 -10z"/>
<path d="M2816 368 c3 -5 10 -6 15 -3 13 9 11 12 -6 12 -8 0 -12 -4 -9 -9z"/>
<path d="M151 334 c0 -11 3 -14 6 -6 3 7 2 16 -1 19 -3 4 -6 -2 -5 -13z"/>
<path d="M225 330 c-3 -5 -1 -10 4 -10 6 0 11 5 11 10 0 6 -2 10 -4 10 -3 0
-8 -4 -11 -10z"/>
<path d="M1750 331 c0 -5 7 -12 16 -15 14 -5 15 -4 4 9 -14 17 -20 19 -20 6z"/>
<path d="M895 319 c-4 -6 -5 -12 -2 -15 2 -3 7 2 10 11 7 17 1 20 -8 4z"/>
<path d="M2405 322 c6 -5 46 -28 90 -51 44 -22 85 -44 90 -48 6 -5 26 -9 45
-10 33 -2 32 -1 -15 16 -27 10 -84 36 -125 57 -89 46 -99 50 -85 36z"/>
<path d="M2866 313 c-6 -14 -5 -15 5 -6 7 7 10 15 7 18 -3 3 -9 -2 -12 -12z"/>
<path d="M1727 305 c12 -33 97 -127 107 -118 3 4 6 0 6 -8 0 -8 9 -25 19 -38
14 -18 20 -21 26 -11 5 9 -10 30 -46 65 -30 28 -69 69 -87 91 -18 21 -29 30
-25 19z"/>
<path d="M874 273 c-1 -16 1 -22 3 -14 5 11 7 11 14 0 5 -8 9 -9 9 -3 0 5 -6
18 -12 27 -12 15 -13 14 -14 -10z"/>
<path d="M2838 264 c3 -18 7 -20 17 -11 7 7 9 14 4 15 -5 2 -7 7 -5 11 3 4 -1
8 -8 8 -8 0 -11 -9 -8 -23z"/>
<path d="M1901 264 c0 -11 3 -14 6 -6 3 7 2 16 -1 19 -3 4 -6 -2 -5 -13z"/>
<path d="M200 260 c0 -5 5 -10 11 -10 5 0 7 5 4 10 -3 6 -8 10 -11 10 -2 0 -4
-4 -4 -10z"/>
<path d="M916 251 c4 -15 2 -21 -4 -17 -6 4 -8 -3 -5 -16 4 -19 3 -20 -7 -8
-9 12 -10 11 -5 -9 4 -13 3 -21 -2 -18 -5 3 -8 -7 -7 -21 0 -15 -3 -30 -9 -33
-5 -4 -6 -13 -2 -20 9 -14 19 6 41 85 9 34 10 54 3 65 -8 12 -8 10 -3 -8z"/>
<path d="M2821 254 c0 -11 3 -14 6 -6 3 7 2 16 -1 19 -3 4 -6 -2 -5 -13z"/>
<path d="M1913 164 c4 -38 7 -90 7 -116 0 -27 4 -48 9 -48 5 0 7 10 3 22 -4
15 -2 19 7 13 10 -5 11 -2 6 15 -9 28 -13 62 -16 123 -1 26 -7 51 -12 54 -7 4
-8 -18 -4 -63z"/>
<path d="M2085 210 c-12 -36 -15 -53 -8 -63 3 -4 6 -32 8 -60 2 -35 0 -45 -5
-32 -5 11 -9 15 -9 8 -1 -16 20 -63 29 -63 6 0 2 202 -4 225 -2 6 -7 -1 -11
-15z"/>
<path d="M1891 112 c-1 -8 -6 -10 -13 -6 -10 5 -10 4 -1 -6 15 -16 28 -8 20
12 -4 11 -6 11 -6 0z"/>
<path d="M930 30 c6 -11 13 -20 16 -20 2 0 0 9 -6 20 -6 11 -13 20 -16 20 -2
0 0 -9 6 -20z"/>
</g>
</svg>
