<?xml version="1.0" standalone="no"?>
<!DOCTYPE svg PUBLIC "-//W3C//DTD SVG 20010904//EN"
 "http://www.w3.org/TR/2001/REC-SVG-20010904/DTD/svg10.dtd">
<svg version="1.0" xmlns="http://www.w3.org/2000/svg"
 width="300.000000pt" height="200.000000pt" viewBox="0 0 300.000000 200.000000"
 preserveAspectRatio="xMidYMid meet">
<metadata>
Created by potrace 1.10, written by Peter Selinger 2001-2011
</metadata>
<g transform="translate(0.000000,200.000000) scale(0.100000,-0.100000)"
fill="#000000" stroke="none">
<path d="M833 1985 c0 -8 4 -12 9 -9 5 3 6 10 3 15 -9 13 -12 11 -12 -6z"/>
<path d="M2985 1960 c-4 -6 -21 -10 -38 -9 -18 1 -47 -2 -66 -5 -23 -5 -37 -3
-42 6 -5 7 -9 8 -9 2 0 -6 -22 -11 -50 -13 -31 -1 -50 2 -50 9 0 7 -6 8 -15 3
-8 -5 -48 -6 -87 -2 -40 4 -82 3 -93 -2 -19 -7 -19 -8 3 -8 12 -1 22 -6 22
-12 0 -7 62 -8 198 -4 233 7 236 7 240 28 4 19 -3 22 -13 7z"/>
<path d="M2488 1922 c-12 -15 -11 -16 5 -3 11 9 17 10 17 2 0 -6 5 -11 10 -11
15 0 12 17 -4 23 -8 3 -20 -2 -28 -11z"/>
<path d="M60 1920 c0 -5 7 -10 15 -10 8 0 15 5 15 10 0 6 -7 10 -15 10 -8 0
-15 -4 -15 -10z"/>
<path d="M180 1921 c0 -5 -8 -12 -17 -14 -14 -4 -12 -5 5 -6 13 -1 22 5 22 14
0 8 -2 15 -5 15 -3 0 -5 -4 -5 -9z"/>
<path d="M857 1917 c-12 -32 -8 -43 18 -45 14 -1 25 3 25 8 0 6 -5 9 -12 8 -6
-2 -14 8 -18 22 -5 22 -7 23 -13 7z"/>
<path d="M1900 1921 c11 -8 1 -10 -38 -8 -30 1 -56 -1 -59 -6 -2 -4 23 -7 56
-5 57 3 85 19 44 26 -15 3 -16 1 -3 -7z"/>
<path d="M1950 1916 c0 -11 8 -16 28 -15 15 0 21 3 12 6 -8 3 -21 10 -27 16
-9 7 -13 5 -13 -7z"/>
<path d="M2010 1922 c0 -12 19 -26 26 -19 2 2 -2 10 -11 17 -9 8 -15 8 -15 2z"/>
<path d="M2190 1920 c0 -5 5 -10 10 -10 6 0 10 5 10 10 0 6 -4 10 -10 10 -5 0
-10 -4 -10 -10z"/>
<path d="M2230 1920 c-13 -8 -12 -10 3 -10 9 0 17 5 17 10 0 12 -1 12 -20 0z"/>
<path d="M2267 1917 c-7 -4 32 -7 86 -6 53 1 97 4 97 8 0 9 -169 8 -183 -2z"/>
<path d="M540 1904 c0 -8 11 -14 25 -14 14 0 25 4 25 9 0 5 -11 11 -25 13 -17
4 -25 1 -25 -8z"/>
<path d="M1290 1909 c0 -7 -10 -9 -25 -7 -14 3 -25 1 -25 -3 0 -14 43 -10 64
6 17 13 18 15 3 15 -9 0 -17 -5 -17 -11z"/>
<path d="M1545 1910 c-20 -9 -13 -12 25 -12 11 0 28 1 38 2 15 1 14 3 -3 10
-11 5 -24 9 -30 9 -5 0 -19 -4 -30 -9z"/>
<path d="M2130 1909 c0 -5 5 -7 10 -4 6 3 10 8 10 11 0 2 -4 4 -10 4 -5 0 -10
-5 -10 -11z"/>
<path d="M400 1900 c-13 -8 -12 -10 3 -10 9 0 17 5 17 10 0 12 -1 12 -20 0z"/>
<path d="M1465 1900 c3 -5 8 -10 11 -10 2 0 4 5 4 10 0 6 -5 10 -11 10 -5 0
-7 -4 -4 -10z"/>
<path d="M1708 1903 c18 -2 45 -2 60 0 15 2 0 4 -33 4 -33 0 -45 -2 -27 -4z"/>
<path d="M1050 1889 c-33 -6 -33 -6 13 -8 26 0 47 3 47 7 0 10 -12 10 -60 1z"/>
<path d="M735 1881 c-3 -5 -1 -12 5 -16 5 -3 10 1 10 9 0 18 -6 21 -15 7z"/>
<path d="M794 1878 c10 -5 23 -5 34 1 14 8 10 10 -16 9 -26 -1 -30 -3 -18 -10z"/>
<path d="M955 1880 c3 -5 13 -10 21 -10 8 0 14 5 14 10 0 6 -9 10 -21 10 -11
0 -17 -4 -14 -10z"/>
<path d="M1133 1883 c9 -2 25 -2 35 0 9 3 1 5 -18 5 -19 0 -27 -2 -17 -5z"/>
<path d="M2725 1877 c-71 -5 -160 -9 -197 -9 -80 0 -93 -17 -15 -20 56 -1 58
-1 192 7 50 3 136 8 193 11 56 3 102 10 102 15 0 9 -83 8 -275 -4z"/>
<path d="M2310 1859 c-27 -5 -29 -7 -10 -8 14 -1 35 -4 48 -7 12 -4 22 -2 22
4 0 15 -21 19 -60 11z"/>
<path d="M30 1848 c0 -4 11 -8 25 -8 14 0 25 4 25 10 0 5 -11 9 -25 8 -14 -1
-25 -6 -25 -10z"/>
<path d="M93 1844 c0 -7 4 -14 9 -14 4 0 8 5 8 11 0 5 5 7 12 3 7 -4 98 -9
203 -10 122 -1 182 1 167 7 -13 5 -90 9 -170 9 -81 -1 -165 2 -188 4 -31 4
-41 2 -41 -10z"/>
<path d="M1951 1844 c0 -11 3 -14 6 -6 3 7 2 16 -1 19 -3 4 -6 -2 -5 -13z"/>
<path d="M2046 1848 c6 -9 189 -8 204 2 4 3 -41 5 -100 6 -60 0 -106 -4 -104
-8z"/>
<path d="M575 1840 c-51 -4 -55 -6 -25 -10 19 -3 62 -2 95 1 33 3 51 7 40 8
-11 1 -27 3 -35 4 -8 1 -42 0 -75 -3z"/>
<path d="M1267 1843 c-3 -5 123 -8 279 -8 156 0 284 3 284 7 0 9 -558 10 -563
1z"/>
<path d="M1903 1843 c9 -2 23 -2 30 0 6 3 -1 5 -18 5 -16 0 -22 -2 -12 -5z"/>
<path d="M710 1830 c0 -5 5 -10 10 -10 6 0 10 5 10 10 0 6 -4 10 -10 10 -5 0
-10 -4 -10 -10z"/>
<path d="M797 1825 c-4 -8 -2 -17 3 -20 6 -4 10 -16 10 -28 0 -15 3 -18 11
-10 6 6 18 9 25 6 8 -3 14 0 14 6 0 6 -8 11 -19 11 -10 0 -24 7 -32 16 -11 14
-8 15 27 12 37 -3 39 -5 45 -43 7 -43 11 -39 13 10 1 23 6 31 24 33 13 2 29
-1 37 -8 15 -12 17 -79 2 -97 -14 -18 -54 -16 -61 3 -5 14 -9 13 -25 -7 -11
-14 -24 -20 -34 -16 -24 9 -21 26 5 36 21 8 21 8 -5 13 -23 5 -27 2 -27 -19 0
-30 51 -83 79 -83 12 0 21 -5 21 -10 0 -6 -6 -10 -13 -8 -7 2 -25 -7 -41 -20
-16 -12 -26 -22 -22 -22 4 0 2 -10 -5 -21 -9 -17 -8 -25 5 -37 15 -15 16 -13
16 19 0 44 15 59 57 59 29 0 33 3 33 28 0 25 -3 27 -37 27 -27 0 -38 4 -38 15
0 10 11 15 35 15 57 1 70 -10 70 -58 0 -52 -13 -67 -57 -67 -29 0 -33 -3 -33
-25 0 -22 4 -25 40 -25 33 0 40 -3 40 -20 0 -17 -7 -20 -43 -20 -24 0 -49 6
-55 12 -10 10 -14 8 -18 -8 -6 -24 -53 -31 -66 -10 -4 6 -8 -10 -8 -35 0 -33
5 -49 15 -53 13 -4 14 -2 5 14 -6 11 -8 25 -5 30 4 6 70 10 158 9 84 0 154 0
157 1 18 5 110 6 110 0 0 -3 -6 -18 -12 -33 -14 -29 -35 -31 -30 -2 2 10 -1
14 -7 10 -6 -3 -11 -12 -11 -20 0 -10 -17 -13 -64 -14 -35 0 -68 -1 -72 -2
-33 -6 -54 3 -54 22 0 11 -4 17 -10 14 -5 -3 -10 -15 -10 -26 0 -26 -18 -24
-22 3 -2 12 -9 23 -16 26 -7 2 -11 -4 -10 -15 3 -19 -2 -23 -31 -23 -12 0 -21
8 -24 23 l-4 22 -8 -22 c-8 -24 -31 -37 -47 -27 -6 4 -9 1 -6 -6 3 -11 49 -13
222 -12 120 0 220 3 223 6 3 2 5 30 5 62 1 45 -3 60 -18 71 -11 8 -18 20 -16
26 3 9 0 8 -9 0 -22 -22 -25 -15 -27 50 -2 87 -14 121 -40 125 -24 4 -44 -31
-34 -57 3 -9 0 -12 -9 -9 -8 3 -13 11 -11 17 4 18 -17 51 -32 51 -9 0 -12 7
-9 21 6 20 6 20 30 -3 24 -23 25 -23 39 -3 20 28 16 123 -5 129 -25 7 -58 1
-75 -13 -8 -7 -20 -10 -27 -6 -8 6 -7 10 2 16 9 5 -25 9 -82 9 -76 0 -98 -3
-102 -15z m233 -36 c0 -25 18 -25 22 1 6 41 23 19 23 -30 0 -52 -15 -68 -27
-28 -3 13 -6 19 -7 15 -1 -4 -10 -3 -21 3 -19 10 -27 49 -14 63 11 10 24 -3
24 -24z m-30 -73 c0 -8 -4 -17 -9 -21 -12 -7 -24 12 -16 25 9 15 25 12 25 -4z
m40 -82 c0 -31 3 -34 29 -34 26 0 28 3 27 38 -1 27 3 37 14 37 12 0 15 -18 17
-92 2 -77 0 -93 -12 -93 -13 0 -21 31 -16 63 1 8 -14 10 -42 7 -31 -3 -57 29
-57 70 0 41 6 51 26 43 8 -3 14 -19 14 -39z m-24 -76 c14 -13 29 -23 32 -22
10 1 32 -23 32 -35 0 -22 37 -31 66 -16 30 15 48 8 39 -16 -4 -11 -31 -15
-115 -16 -106 -3 -110 -2 -98 17 10 16 9 23 -7 40 -11 12 -27 19 -37 17 -10
-3 -21 -1 -24 4 -3 5 6 9 19 9 13 0 32 9 43 19 24 25 19 25 50 -1z"/>
<path d="M1116 1830 c7 -7 19 -7 35 -1 23 9 22 10 -10 10 -24 1 -32 -2 -25 -9z"/>
<path d="M1180 1836 c0 -2 7 -6 15 -10 8 -3 15 -1 15 4 0 6 -7 10 -15 10 -8 0
-15 -2 -15 -4z"/>
<path d="M1243 1785 c0 -33 2 -45 4 -27 2 18 2 45 0 60 -2 15 -4 0 -4 -33z"/>
<path d="M916 1792 c-3 -6 -1 -14 5 -17 15 -10 25 3 12 16 -7 7 -13 7 -17 1z"/>
<path d="M140 1770 c0 -11 2 -20 4 -20 2 0 6 9 9 20 3 11 1 20 -4 20 -5 0 -9
-9 -9 -20z"/>
<path d="M238 1784 c-3 -3 -3 -14 -1 -25 5 -16 8 -18 14 -7 16 25 6 51 -13 32z"/>
<path d="M386 1781 c-4 -7 -5 -15 -2 -18 9 -9 19 4 14 18 -4 11 -6 11 -12 0z"/>
<path d="M50 1760 c0 -5 5 -10 10 -10 6 0 10 5 10 10 0 6 -4 10 -10 10 -5 0
-10 -4 -10 -10z"/>
<path d="M1600 1760 c-9 -6 -10 -10 -3 -10 6 0 15 5 18 10 8 12 4 12 -15 0z"/>
<path d="M1630 1759 c0 -5 5 -7 10 -4 6 3 10 8 10 11 0 2 -4 4 -10 4 -5 0 -10
-5 -10 -11z"/>
<path d="M915 1741 c-6 -11 9 -23 19 -14 9 9 7 23 -3 23 -6 0 -12 -4 -16 -9z"/>
<path d="M1545 1730 c5 -8 68 -30 88 -30 4 0 7 5 7 12 0 6 -2 9 -6 6 -3 -3
-25 0 -50 8 -25 7 -42 9 -39 4z"/>
<path d="M1668 1733 c7 -3 16 -2 19 1 4 3 -2 6 -13 5 -11 0 -14 -3 -6 -6z"/>
<path d="M1492 1702 c-28 -30 -52 -105 -52 -162 0 -23 -4 -28 -17 -24 -14 5
-15 4 -4 -4 11 -8 11 -16 0 -46 -9 -26 -10 -39 -3 -44 6 -4 14 -27 18 -51 4
-24 10 -49 14 -55 13 -20 7 -51 -11 -65 -10 -7 -21 -11 -23 -8 -3 3 -17 -6
-32 -20 -15 -13 -34 -30 -42 -38 -18 -15 -70 -23 -88 -12 -7 5 -12 3 -12 -3 0
-7 -6 -10 -12 -7 -7 2 -12 10 -10 17 2 10 0 11 -10 3 -8 -7 -81 -11 -206 -11
-175 0 -194 2 -217 20 -14 11 -25 17 -25 15 0 -3 -3 -12 -6 -21 -4 -10 -1 -16
9 -16 8 0 17 -6 19 -12 4 -10 68 -13 274 -13 148 0 270 -2 272 -5 2 -3 -1 -18
-7 -33 -6 -16 -11 -29 -11 -31 0 -1 10 -2 23 -3 12 0 17 1 10 4 -8 3 -9 12 -3
29 6 14 9 28 8 32 -10 33 70 90 164 117 31 9 59 22 61 30 4 8 14 11 25 8 29
-7 100 -86 108 -119 5 -23 4 -27 -6 -17 -9 8 -19 9 -32 2 -10 -5 -23 -7 -28
-4 -6 4 -13 0 -16 -9 -3 -9 -12 -12 -22 -9 -12 4 -14 3 -7 -5 8 -8 21 -9 43
-3 21 6 32 6 32 0 0 -6 4 -7 10 -4 5 3 12 -5 15 -18 4 -16 -5 -43 -32 -90 -21
-37 -41 -66 -46 -65 -4 2 -16 -12 -27 -29 -11 -18 -28 -34 -37 -34 -10 -1 -28
-3 -41 -4 l-23 -2 22 23 c12 13 27 22 33 21 6 -1 11 7 11 19 0 11 5 27 11 35
6 8 15 25 19 39 7 23 6 24 -9 11 -10 -8 -26 -31 -36 -51 -18 -35 -139 -161
-162 -169 -6 -2 -2 12 10 31 24 38 28 58 12 58 -5 0 -10 -9 -10 -19 0 -11 -7
-27 -16 -36 -9 -8 -13 -22 -10 -30 4 -10 -1 -15 -15 -15 -11 0 -29 -5 -40 -11
-16 -8 -18 -13 -8 -25 10 -13 15 -12 33 4 29 26 85 52 91 42 2 -4 -3 -18 -13
-31 -14 -18 -17 -37 -14 -76 4 -49 6 -53 29 -53 l26 0 -7 94 c-3 51 -4 100 -1
108 4 9 18 12 45 10 78 -8 170 76 211 192 22 64 25 88 15 131 l-7 30 15 -25
c8 -14 15 -20 16 -15 0 16 -41 78 -47 71 -4 -4 -20 7 -37 23 -17 16 -40 31
-51 34 -17 4 -16 5 5 6 14 1 46 8 73 16 26 8 47 10 47 5 0 -6 6 -10 13 -10 17
0 72 -27 109 -52 14 -10 30 -18 35 -18 4 0 1 5 -7 10 -13 8 -13 10 2 10 9 0
21 -8 27 -17 9 -17 12 -17 45 1 43 23 62 17 134 -42 26 -21 58 -44 72 -51 58
-28 123 -85 155 -135 24 -38 50 -63 87 -84 29 -16 68 -45 86 -64 l32 -34 -22
-21 c-35 -32 -170 -113 -189 -113 -9 0 -36 18 -60 40 l-44 39 30 1 c19 1 25 4
15 8 -20 9 -19 52 3 86 10 15 17 38 15 52 -2 17 5 31 21 43 14 11 20 21 13 25
-6 3 -17 -1 -25 -9 -20 -19 -28 -19 -21 0 5 12 2 14 -12 8 -16 -5 -17 -4 -7 8
8 11 8 21 -1 44 -8 19 -15 25 -20 17 -4 -7 -2 -12 3 -12 6 0 11 -7 11 -16 0
-12 -5 -10 -19 7 -12 15 -15 26 -9 30 6 4 7 12 4 18 -4 6 -11 9 -16 6 -5 -3
-13 3 -19 12 -25 43 -9 -15 25 -89 29 -65 35 -88 30 -117 -34 -187 -46 -299
-46 -420 0 -86 -5 -157 -14 -191 -8 -30 -14 -55 -13 -56 1 0 14 -8 29 -17 15
-9 31 -17 35 -17 4 0 0 5 -10 11 -9 6 -15 14 -12 20 4 5 -4 9 -16 9 -21 0 -22
1 -4 20 10 11 23 17 29 13 8 -5 8 -3 0 8 -14 17 -10 65 7 85 10 12 8 17 -6 28
-10 7 -15 19 -12 27 4 10 6 9 6 -3 1 -18 12 -23 24 -11 4 3 0 15 -10 25 -9 10
-13 21 -10 25 4 3 1 13 -5 21 -10 11 -8 17 7 28 15 11 16 17 7 26 -17 17 -15
38 5 38 15 0 14 2 -3 16 -10 8 -13 12 -6 9 11 -6 11 -3 1 13 -9 14 -10 24 -2
34 5 7 9 28 8 46 -4 41 11 50 39 23 35 -33 116 -21 147 22 3 5 9 8 13 8 15 -3
66 31 89 59 39 46 18 84 -82 145 -35 22 -66 48 -69 57 -2 10 -9 18 -14 18 -6
0 -8 7 -4 15 3 9 0 15 -9 15 -8 0 -15 6 -15 14 0 8 -7 17 -16 20 -11 4 -14 13
-11 27 4 16 3 18 -8 9 -18 -15 -42 -2 -78 41 -15 18 -27 27 -27 21 0 -10 -5
-10 -20 -2 -11 6 -18 15 -15 21 4 5 -3 9 -14 9 -25 0 -38 20 -20 31 10 6 9 9
-6 15 -11 4 -24 10 -30 12 -7 4 -7 1 0 -9 6 -8 3 -7 -6 3 -9 9 -19 15 -22 12
-6 -7 -40 10 -60 30 -12 12 -18 12 -39 1 -23 -11 -28 -10 -52 12 -24 22 -28
32 -31 88 -1 11 -5 27 -9 34 -5 8 -3 17 5 22 8 5 10 9 6 9 -4 0 -3 9 3 20 7
12 7 20 1 20 -5 0 -13 -9 -16 -21 -6 -19 -7 -20 -20 -2 -11 15 -11 19 1 26 8
5 12 13 8 18 -3 6 -11 3 -18 -7 -8 -11 -18 -14 -26 -9 -10 6 -9 11 4 20 15 12
13 15 -19 35 -41 25 -123 38 -90 14 10 -8 27 -12 36 -9 20 7 49 -19 49 -44 0
-9 14 -27 30 -39 21 -16 30 -31 30 -52 0 -15 5 -52 12 -81 9 -40 19 -56 43
-70 16 -11 23 -19 15 -19 -24 1 -71 45 -73 68 -2 27 -9 28 -25 2 -11 -18 -10
-21 11 -29 22 -9 56 -41 43 -41 -4 0 -24 11 -46 25 -22 14 -46 25 -54 25 -8 0
-18 5 -21 10 -3 6 2 10 12 10 10 0 29 10 43 21 24 20 18 20 -27 2 -11 -4 -14
-3 -9 5 4 7 2 12 -5 12 -7 0 -5 8 6 20 27 30 10 24 -30 -11 -33 -30 -49 -29
-22 1 10 12 9 12 -6 0 -10 -7 -23 -23 -29 -34 -10 -18 -9 -19 4 -9 8 7 17 11
20 8 3 -3 11 1 18 10 7 8 17 15 22 15 7 0 6 -5 -1 -13 -6 -8 -8 -16 -5 -19 2
-3 -2 -8 -10 -11 -9 -4 -18 -2 -21 4 -4 5 -12 6 -18 2 -7 -4 -16 -8 -22 -10
-5 -1 -20 -4 -33 -7 -12 -3 -35 -13 -50 -24 -38 -26 -62 -34 -62 -19 0 7 -9 1
-19 -12 -15 -19 -19 -21 -24 -8 -3 8 -3 18 1 21 3 4 7 17 9 29 2 16 0 18 -6 8
-6 -10 -10 -10 -16 -1 -4 6 -4 14 -1 17 3 3 1 12 -5 20 -8 9 -8 17 0 26 6 8 7
18 3 22 -4 5 -2 5 5 2 6 -4 18 -4 27 -1 20 8 22 64 2 64 -9 0 -12 -8 -8 -25 2
-14 0 -25 -6 -25 -6 0 -17 -3 -26 -6 -22 -9 -21 18 4 58 14 23 16 35 8 45 -7
9 -7 21 1 40 9 25 18 60 20 86 1 5 15 22 31 37 18 17 26 31 20 35 -6 4 -23 -7
-38 -23z m483 -412 c6 -10 -49 -42 -59 -33 -6 6 32 43 45 43 4 0 10 -4 14 -10z
m-267 -75 c-3 -3 -9 2 -12 12 -6 14 -5 15 5 6 7 -7 10 -15 7 -18z m-281 -464
c-2 -10 0 -26 5 -35 6 -10 5 -23 -1 -33 -12 -21 -12 -22 -16 40 -3 29 0 47 7
47 6 0 8 -8 5 -19z"/>
<path d="M1760 1716 c0 -2 8 -10 18 -17 15 -13 16 -12 3 4 -13 16 -21 21 -21
13z"/>
<path d="M65 1699 c-4 -6 -5 -12 -2 -15 2 -3 7 2 10 11 7 17 1 20 -8 4z"/>
<path d="M335 1700 c-3 -6 5 -10 19 -10 14 0 30 -8 35 -17 10 -17 10 -17 11 0
0 10 -11 22 -26 27 -31 12 -31 12 -39 0z"/>
<path d="M1683 1695 c0 -8 4 -12 9 -9 5 3 6 10 3 15 -9 13 -12 11 -12 -6z"/>
<path d="M237 1686 c-6 -15 1 -26 15 -26 4 0 8 9 8 20 0 23 -15 27 -23 6z"/>
<path d="M1197 1681 c-4 -17 -3 -21 5 -13 5 5 8 16 6 23 -3 8 -7 3 -11 -10z"/>
<path d="M1706 1683 c-6 -14 -5 -15 5 -6 7 7 10 15 7 18 -3 3 -9 -2 -12 -12z"/>
<path d="M1503 1666 c-3 -6 -3 -8 1 -4 4 3 21 2 37 -2 16 -5 27 -5 24 -1 -8
14 -55 19 -62 7z"/>
<path d="M1641 1676 c2 -2 32 -16 66 -30 53 -22 66 -24 83 -14 11 7 20 20 19
28 0 10 -2 11 -6 2 -2 -6 -10 -9 -15 -6 -6 4 -8 2 -4 -4 12 -19 -15 -24 -30
-6 -9 11 -13 13 -9 7 9 -18 1 -16 -45 7 -34 17 -71 27 -59 16z"/>
<path d="M2352 1667 c-8 -10 -5 -13 15 -15 22 -2 24 0 13 13 -15 18 -15 18
-28 2z"/>
<path d="M771 1654 c0 -11 3 -14 6 -6 3 7 2 16 -1 19 -3 4 -6 -2 -5 -13z"/>
<path d="M1241 1654 c0 -11 3 -14 6 -6 3 7 2 16 -1 19 -3 4 -6 -2 -5 -13z"/>
<path d="M450 1639 c0 -5 5 -7 10 -4 6 3 10 8 10 11 0 2 -4 4 -10 4 -5 0 -10
-5 -10 -11z"/>
<path d="M1486 1641 c-5 -7 2 -11 18 -11 14 0 50 -11 80 -25 87 -40 105 -45
111 -35 4 6 0 10 -8 10 -8 0 -41 13 -73 30 -68 35 -119 47 -128 31z"/>
<path d="M1580 1646 c0 -2 11 -6 25 -8 13 -3 22 -1 19 3 -5 9 -44 13 -44 5z"/>
<path d="M430 1625 c0 -15 18 -40 24 -34 3 3 -1 14 -9 25 -8 10 -14 15 -15 9z"/>
<path d="M386 1605 c-16 -12 -17 -15 -4 -15 9 0 18 7 22 15 7 18 6 18 -18 0z"/>
<path d="M1244 1609 c-4 -6 0 -16 10 -21 9 -5 14 -13 11 -19 -4 -5 2 -6 11 -2
11 4 13 8 6 11 -7 2 -10 7 -7 12 3 4 -2 13 -9 19 -11 9 -16 9 -22 0z"/>
<path d="M768 1594 c-3 -12 -2 -28 3 -35 12 -20 16 -8 9 26 -5 27 -6 28 -12 9z"/>
<path d="M2307 1586 c3 -14 11 -30 18 -36 10 -8 11 -4 6 22 -4 17 -11 33 -17
35 -7 2 -10 -6 -7 -21z"/>
<path d="M2400 1600 c0 -5 5 -10 10 -10 6 0 10 5 10 10 0 6 -4 10 -10 10 -5 0
-10 -4 -10 -10z"/>
<path d="M1530 1593 c0 -4 14 -16 31 -25 17 -10 28 -22 24 -27 -3 -5 -1 -12 4
-15 14 -9 7 19 -9 39 -16 20 -50 39 -50 28z"/>
<path d="M480 1571 c0 -6 5 -13 10 -16 6 -3 10 1 10 9 0 9 -4 16 -10 16 -5 0
-10 -4 -10 -9z"/>
<path d="M1862 1555 c0 -16 2 -22 5 -12 2 9 2 23 0 30 -3 6 -5 -1 -5 -18z"/>
<path d="M2384 1558 l-19 -23 23 19 c21 18 27 26 19 26 -2 0 -12 -10 -23 -22z"/>
<path d="M1190 1548 c-12 -22 -12 -22 6 -6 10 10 15 20 12 24 -4 3 -12 -5 -18
-18z"/>
<path d="M1482 1562 c-14 -9 -7 -37 15 -64 14 -15 17 -15 44 9 35 32 36 39 5
47 -13 3 -30 8 -38 11 -7 3 -19 1 -26 -3z m19 -29 c-12 -20 -14 -14 -5 12 4 9
9 14 11 11 3 -2 0 -13 -6 -23z m44 8 c3 -5 0 -13 -6 -17 -7 -4 -9 -3 -5 4 3 5
0 13 -6 15 -9 4 -10 6 -1 6 6 1 14 -3 18 -8z"/>
<path d="M1703 1551 c-3 -11 -9 -19 -13 -16 -4 3 -10 -2 -13 -10 -4 -9 -1 -12
9 -8 16 6 20 -12 4 -22 -5 -3 -10 -11 -10 -17 0 -6 11 1 25 16 14 15 25 26 26
24 9 -38 7 -47 -14 -54 -12 -5 -28 -7 -35 -5 -10 2 -11 -2 -3 -18 6 -11 19
-18 28 -16 10 2 23 4 30 4 7 1 10 8 6 17 -3 9 0 20 8 24 11 7 11 13 -1 34 -7
14 -19 26 -27 26 -18 0 -16 17 2 24 10 4 19 -2 25 -17 10 -22 10 -21 7 3 -3
33 -46 42 -54 11z"/>
<path d="M699 1538 c-1 -7 -1 -18 0 -25 1 -7 -7 -30 -19 -52 -12 -25 -15 -38
-8 -35 17 6 48 74 48 102 0 23 -19 31 -21 10z"/>
<path d="M1240 1506 c0 -9 8 -16 19 -16 11 0 25 -13 35 -32 8 -18 16 -31 17
-28 6 33 6 40 -2 40 -6 0 -8 4 -5 8 4 8 -9 17 -56 40 -5 2 -8 -4 -8 -12z"/>
<path d="M1633 1513 c4 -3 2 -12 -4 -20 -6 -7 -8 -13 -3 -13 5 0 2 -5 -6 -11
-13 -9 -13 -10 2 -5 9 2 19 0 21 -7 2 -7 2 -2 1 10 -2 12 1 25 6 28 12 8 4 25
-12 25 -6 0 -8 -3 -5 -7z"/>
<path d="M2371 1494 c0 -11 3 -14 6 -6 3 7 2 16 -1 19 -3 4 -6 -2 -5 -13z"/>
<path d="M1577 1487 c-3 -8 1 -14 9 -14 16 0 19 13 5 21 -5 3 -11 0 -14 -7z"/>
<path d="M2630 1478 c0 -7 5 -20 10 -28 8 -12 10 -11 10 7 0 12 -4 25 -10 28
-5 3 -10 0 -10 -7z"/>
<path d="M718 1443 c-21 -24 -32 -63 -19 -63 6 0 11 -9 11 -19 0 -22 16 -36
24 -22 4 5 2 12 -4 16 -6 4 -7 13 -1 23 13 26 22 82 12 82 -4 0 -15 -8 -23
-17z"/>
<path d="M1240 1452 c0 -5 11 -18 25 -30 29 -26 36 -5 7 21 -20 19 -32 22 -32
9z"/>
<path d="M2466 1447 c3 -10 9 -15 12 -12 3 3 0 11 -7 18 -10 9 -11 8 -5 -6z"/>
<path d="M2687 1453 c-4 -3 -7 -16 -6 -27 0 -19 1 -19 10 3 10 24 8 36 -4 24z"/>
<path d="M1523 1431 c-6 -10 -8 -23 -4 -29 4 -6 11 -1 18 14 13 28 2 41 -14
15z"/>
<path d="M1592 1438 c-15 -15 -15 -28 0 -28 6 0 8 3 5 7 -4 3 -2 12 4 20 14
16 7 17 -9 1z"/>
<path d="M1770 1405 c-7 -8 -8 -15 -2 -15 5 0 15 7 22 15 7 8 8 15 2 15 -5 0
-15 -7 -22 -15z"/>
<path d="M1915 1410 c-3 -5 -2 -10 4 -10 5 0 13 5 16 10 3 6 2 10 -4 10 -5 0
-13 -4 -16 -10z"/>
<path d="M2065 1410 c-3 -5 -2 -10 4 -10 5 0 13 5 16 10 3 6 2 10 -4 10 -5 0
-13 -4 -16 -10z"/>
<path d="M2410 1411 c0 -6 4 -13 10 -16 6 -3 7 1 4 9 -7 18 -14 21 -14 7z"/>
<path d="M572 1396 c-20 -10 -22 -17 -21 -88 1 -42 -2 -81 -6 -87 -3 -6 -2
-11 4 -11 6 0 14 12 17 28 4 15 11 32 16 38 5 7 3 16 -5 22 -8 7 -11 25 -9 48
4 29 10 39 36 50 21 9 25 13 11 12 -11 0 -30 -5 -43 -12z"/>
<path d="M1115 1400 c3 -5 8 -10 11 -10 2 0 4 5 4 10 0 6 -5 10 -11 10 -5 0
-7 -4 -4 -10z"/>
<path d="M1976 1393 c-6 -14 -5 -15 5 -6 7 7 10 15 7 18 -3 3 -9 -2 -12 -12z"/>
<path d="M1560 1390 c0 -5 4 -10 9 -10 6 0 13 5 16 10 3 6 -1 10 -9 10 -9 0
-16 -4 -16 -10z"/>
<path d="M1293 1383 c9 -2 17 -9 17 -14 0 -5 5 -9 11 -9 8 0 8 5 -1 15 -7 8
-20 14 -29 14 -13 -1 -13 -2 2 -6z"/>
<path d="M1479 1383 c19 -4 21 -7 10 -14 -11 -7 -10 -9 4 -9 28 0 14 25 -14
27 l-24 1 24 -5z"/>
<path d="M2178 1383 c-9 -18 -8 -70 1 -93 9 -21 10 -19 4 14 -5 32 -3 37 8 31
11 -7 12 -6 3 6 -6 8 -10 22 -9 32 3 17 -1 23 -7 10z"/>
<path d="M2700 1377 c0 -6 -10 -18 -22 -28 -11 -11 -17 -19 -11 -19 5 0 18 9
28 20 10 11 24 20 32 20 7 0 13 4 13 8 0 4 -9 8 -20 8 -11 0 -20 -4 -20 -9z"/>
<path d="M20 1370 c18 -11 299 -10 306 2 3 4 -68 8 -158 8 -107 0 -158 -4
-148 -10z"/>
<path d="M2251 1364 c0 -11 3 -14 6 -6 3 7 2 16 -1 19 -3 4 -6 -2 -5 -13z"/>
<path d="M1371 1354 c6 -7 17 -10 25 -7 18 7 10 16 -16 18 -15 1 -17 -1 -9
-11z"/>
<path d="M1532 1357 c-7 -8 -9 -17 -5 -21 4 -4 0 -4 -10 0 -12 4 -17 1 -17
-10 0 -20 27 -10 41 16 13 24 6 34 -9 15z"/>
<path d="M2790 1360 c0 -5 7 -7 15 -4 9 4 16 -3 21 -20 3 -14 10 -23 15 -20
12 7 -20 54 -37 54 -8 0 -14 -4 -14 -10z"/>
<path d="M500 1301 c0 -35 2 -62 6 -59 10 10 12 94 3 109 -6 9 -9 -8 -9 -50z"/>
<path d="M1913 1353 c-17 -6 -17 -23 0 -23 8 0 14 7 14 15 0 8 -1 15 -1 14 -1
0 -7 -3 -13 -6z"/>
<path d="M2061 1348 c0 -9 -4 -25 -7 -35 -5 -17 -5 -17 6 0 6 10 9 25 7 35 -4
15 -5 15 -6 0z"/>
<path d="M2113 1343 c-17 -6 -17 -23 0 -23 8 0 14 7 14 15 0 8 -1 15 -1 14 -1
0 -7 -3 -13 -6z"/>
<path d="M1230 1329 c0 -5 5 -7 10 -4 6 3 10 8 10 11 0 2 -4 4 -10 4 -5 0 -10
-5 -10 -11z"/>
<path d="M88 1313 c17 -2 47 -2 65 0 17 2 3 4 -33 4 -36 0 -50 -2 -32 -4z"/>
<path d="M233 1309 c14 -8 22 -8 30 0 8 8 3 11 -18 11 -26 -1 -28 -2 -12 -11z"/>
<path d="M310 1310 c20 -5 39 -5 45 1 5 5 -8 9 -35 8 l-45 -1 35 -8z"/>
<path d="M635 1300 c-3 -6 1 -7 9 -4 18 7 21 14 7 14 -6 0 -13 -4 -16 -10z"/>
<path d="M1665 1280 c10 -11 20 -20 23 -20 3 0 -3 9 -13 20 -10 11 -20 20 -23
20 -3 0 3 -9 13 -20z"/>
<path d="M1705 1264 c16 -21 32 -41 35 -44 4 -3 10 -12 13 -20 5 -13 5 -13 6
0 0 20 -50 92 -69 98 -9 3 -3 -11 15 -34z"/>
<path d="M2520 1290 c-8 -5 -10 -10 -5 -10 6 0 17 5 25 10 8 5 11 10 5 10 -5
0 -17 -5 -25 -10z"/>
<path d="M2365 1270 c-3 -6 1 -7 9 -4 18 7 21 14 7 14 -6 0 -13 -4 -16 -10z"/>
<path d="M2683 1255 c0 -21 4 -25 26 -24 17 1 20 3 9 6 -10 2 -18 13 -18 24 0
10 -4 19 -9 19 -5 0 -8 -11 -8 -25z"/>
<path d="M2140 1260 c0 -5 4 -10 9 -10 6 0 13 5 16 10 3 6 -1 10 -9 10 -9 0
-16 -4 -16 -10z"/>
<path d="M1600 1256 c0 -2 12 -11 26 -21 25 -16 25 -16 14 4 -9 17 -40 30 -40
17z"/>
<path d="M2887 1249 c-9 -5 -21 -8 -26 -4 -5 3 -13 0 -17 -6 -5 -9 2 -10 26
-6 18 4 36 7 41 7 5 0 9 5 9 10 0 13 -10 12 -33 -1z"/>
<path d="M2965 1250 c-3 -5 1 -10 9 -10 9 0 16 5 16 10 0 6 -4 10 -9 10 -6 0
-13 -4 -16 -10z"/>
<path d="M1340 1240 c0 -5 5 -10 10 -10 6 0 10 5 10 10 0 6 -4 10 -10 10 -5 0
-10 -4 -10 -10z"/>
<path d="M88 1228 c6 -6 18 -8 28 -6 14 3 12 5 -9 10 -19 3 -25 2 -19 -4z"/>
<path d="M1560 1230 c0 -5 11 -9 25 -8 27 3 25 10 -5 15 -11 2 -20 -2 -20 -7z"/>
<path d="M1982 1220 c0 -14 2 -19 5 -12 2 6 2 18 0 25 -3 6 -5 1 -5 -13z"/>
<path d="M2410 1175 c0 -38 3 -66 6 -63 8 9 9 117 1 125 -4 3 -7 -24 -7 -62z"/>
<path d="M620 1222 c0 -15 11 -21 27 -15 12 5 12 7 1 14 -17 11 -28 11 -28 1z"/>
<path d="M1489 1213 c-12 -16 -12 -17 1 -6 9 7 21 8 29 4 9 -6 -4 -17 -43 -36
-60 -29 -69 -45 -16 -26 45 15 81 52 68 68 -14 17 -23 16 -39 -4z"/>
<path d="M1900 1219 c0 -5 5 -7 10 -4 6 3 10 8 10 11 0 2 -4 4 -10 4 -5 0 -10
-5 -10 -11z"/>
<path d="M2352 1205 c-9 -11 -9 -15 -1 -15 7 0 10 -14 7 -40 -2 -22 0 -40 4
-40 5 0 8 25 8 55 0 30 -1 55 -2 55 -2 -1 -9 -7 -16 -15z"/>
<path d="M1457 1186 c-4 -10 -1 -13 8 -9 8 3 12 9 9 14 -7 12 -11 11 -17 -5z"/>
<path d="M1920 1185 c7 -9 15 -13 17 -11 7 7 -7 26 -19 26 -6 0 -6 -6 2 -15z"/>
<path d="M1969 1166 c-7 -14 -17 -26 -22 -26 -5 0 -7 -22 -2 -55 3 -30 4 -55
2 -55 -3 0 -13 25 -22 55 -21 65 -37 65 -22 0 8 -33 7 -49 -1 -57 -8 -8 -10
-6 -6 8 5 20 -23 100 -32 91 -3 -3 2 -22 10 -42 19 -44 19 -48 6 -40 -13 8
-13 -1 1 -26 6 -12 15 -17 22 -12 13 8 18 10 42 12 11 1 15 15 15 59 0 37 6
66 16 80 9 13 13 26 10 29 -3 3 -11 -6 -17 -21z"/>
<path d="M727 1174 c-3 -3 -62 -6 -131 -6 -108 0 -127 -2 -135 -16 -4 -10 -8
-93 -8 -186 0 -122 -3 -170 -12 -176 -7 -4 -12 -10 -12 -14 0 -3 -2 -12 -5
-20 -10 -27 1 -275 12 -286 9 -9 11 25 9 136 -2 144 -1 149 22 171 23 24 23
26 17 176 -3 84 -7 163 -10 175 l-5 24 140 -3 c77 -2 142 -1 146 2 3 4 -1 11
-8 17 -8 7 -16 9 -20 6z"/>
<path d="M2080 1173 c0 -15 29 -49 30 -35 0 7 -7 20 -15 28 -8 9 -15 11 -15 7z"/>
<path d="M158 1143 c7 -3 16 -2 19 1 4 3 -2 6 -13 5 -11 0 -14 -3 -6 -6z"/>
<path d="M2130 1145 c0 -5 5 -17 10 -25 5 -8 10 -10 10 -5 0 6 -5 17 -10 25
-5 8 -10 11 -10 5z"/>
<path d="M1450 1132 c0 -6 -6 -9 -13 -6 -8 3 -22 -3 -33 -13 -11 -10 -15 -15
-10 -10 19 14 27 7 15 -15 -7 -13 -12 -24 -11 -25 7 -11 -1 -23 -15 -23 -16 0
-16 2 -3 11 13 8 12 10 -3 7 -10 -2 -19 -7 -20 -13 -3 -16 39 -18 54 -2 8 7
20 12 27 9 21 -7 13 8 -9 17 l-22 8 23 21 c17 15 27 19 36 12 8 -8 14 -5 18 7
4 10 4 14 0 10 -4 -4 -13 -2 -21 4 -9 8 -13 8 -13 1z"/>
<path d="M1538 1128 c-25 -8 -26 -12 -16 -31 8 -16 8 -22 -1 -25 -13 -4 -5
-22 10 -22 6 0 7 5 4 10 -3 6 -2 10 4 10 5 0 15 -8 20 -17 8 -15 10 -15 11 -3
0 9 -8 26 -17 39 -9 14 -11 21 -5 17 7 -4 12 -1 12 8 0 8 6 17 13 19 23 10 -8
5 -35 -5z"/>
<path d="M1973 1077 c0 -31 4 -52 8 -46 5 8 9 6 12 -7 3 -10 3 1 0 26 -9 76
-22 92 -20 27z"/>
<path d="M1586 1107 c3 -10 9 -15 12 -12 3 3 0 11 -7 18 -10 9 -11 8 -5 -6z"/>
<path d="M2010 1065 c0 -37 4 -55 13 -55 8 0 12 18 12 55 1 38 -3 55 -12 55
-9 0 -13 -17 -13 -55z"/>
<path d="M1675 1100 c3 -5 8 -10 11 -10 2 0 4 5 4 10 0 6 -5 10 -11 10 -5 0
-7 -4 -4 -10z"/>
<path d="M1761 1094 c0 -11 3 -14 6 -6 3 7 2 16 -1 19 -3 4 -6 -2 -5 -13z"/>
<path d="M105 1090 c3 -5 8 -10 11 -10 2 0 4 5 4 10 0 6 -5 10 -11 10 -5 0 -7
-4 -4 -10z"/>
<path d="M533 817 c0 -153 4 -280 8 -283 5 -3 9 0 9 6 0 20 31 22 52 4 21 -19
21 -19 14 0 -6 18 -1 19 155 13 89 -3 157 -1 153 3 -5 5 -25 10 -44 12 l-35 3
-3 138 -3 137 180 0 180 0 -5 -122 c-3 -83 -1 -140 8 -176 l13 -53 19 22 c14
16 14 21 3 16 -11 -4 -16 4 -20 30 -4 20 -2 43 3 52 7 12 9 13 10 2 0 -8 3
-11 7 -8 3 4 -1 15 -11 26 -23 25 -29 61 -10 61 15 0 15 33 -1 47 -4 5 -5 2
-1 -4 4 -7 2 -13 -4 -13 -7 0 -9 7 -6 16 3 9 6 21 6 27 0 7 5 6 11 -3 8 -12 9
-9 4 10 -12 46 -5 95 25 155 16 34 41 71 55 85 24 23 35 47 15 35 -5 -3 -10
-3 -10 2 0 4 -39 7 -87 6 -49 -1 -130 -2 -180 -2 -60 -1 -93 -5 -93 -12 0 -7
28 -10 83 -8 45 2 87 0 93 -3 5 -4 16 -3 23 2 8 4 26 4 42 0 15 -5 29 -5 31 0
2 5 15 6 30 3 30 -6 28 -19 -10 -58 -10 -12 -18 -28 -16 -38 1 -9 -6 -27 -17
-40 -10 -14 -15 -27 -12 -31 3 -3 3 -6 -1 -6 -3 0 -11 10 -16 23 l-9 22 -7
-22 c-5 -20 -12 -22 -61 -21 -30 1 -56 5 -59 10 -3 4 -14 4 -24 -2 -27 -14
-30 -13 -30 13 0 21 -1 20 -19 -6 -10 -16 -21 -24 -25 -19 -7 12 -66 21 -66
10 0 -19 -40 -6 -60 20 l-22 27 16 -28 c9 -15 14 -32 11 -37 -6 -9 -18 -98
-16 -115 1 -5 4 -40 7 -77 l6 -68 -90 0 c-88 0 -91 1 -89 23 1 12 -2 45 -6 74
-7 47 -10 52 -35 55 -26 3 -27 5 -30 78 -7 136 -7 198 -2 204 9 9 73 10 108 2
26 -6 32 -4 32 8 0 13 -13 16 -75 16 -42 0 -75 4 -75 10 0 6 68 10 176 9 97 0
179 3 182 5 2 3 -83 6 -190 8 l-195 3 0 -278z m87 -166 c0 -76 -12 -110 -30
-82 -4 7 -13 11 -20 9 -8 -2 -16 5 -18 14 -2 13 1 16 12 12 20 -8 21 10 1 26
-17 14 -21 70 -5 70 6 0 10 7 10 15 0 9 9 15 25 15 25 0 25 -1 25 -79z m587
-33 c-3 -8 -6 -5 -6 6 -1 11 2 17 5 13 3 -3 4 -12 1 -19z"/>
<path d="M2062 1071 c2 -17 1 -31 -4 -31 -5 0 -8 -10 -6 -22 2 -13 10 -23 18
-23 20 0 22 96 1 103 -10 3 -13 -3 -9 -27z"/>
<path d="M973 1083 c26 -2 68 -2 95 0 26 2 4 3 -48 3 -52 0 -74 -1 -47 -3z"/>
<path d="M1143 1083 c15 -2 39 -2 55 0 15 2 2 4 -28 4 -30 0 -43 -2 -27 -4z"/>
<path d="M1248 1083 c12 -2 30 -2 40 0 9 3 -1 5 -23 4 -22 0 -30 -2 -17 -4z"/>
<path d="M788 1060 c-29 -3 -45 -9 -40 -15 8 -11 92 -14 92 -3 0 4 20 5 44 2
25 -4 46 -2 50 4 7 12 -78 19 -146 12z"/>
<path d="M603 1023 c9 -2 23 -2 30 0 6 3 -1 5 -18 5 -16 0 -22 -2 -12 -5z"/>
<path d="M1340 1020 c0 -5 5 -10 11 -10 5 0 7 5 4 10 -3 6 -8 10 -11 10 -2 0
-4 -4 -4 -10z"/>
<path d="M1365 1010 c-27 -11 -45 -19 -40 -20 6 0 3 -5 -5 -10 -12 -8 -13 -10
-1 -10 8 0 23 -7 33 -17 23 -21 35 -11 13 11 -16 15 -14 17 19 31 20 9 36 20
36 25 0 6 -1 10 -2 9 -2 0 -25 -9 -53 -19z"/>
<path d="M1476 1016 c7 -19 38 -22 32 -3 -3 6 -12 13 -21 15 -12 2 -15 -1 -11
-12z"/>
<path d="M715 1010 c-3 -5 1 -10 10 -10 9 0 13 5 10 10 -3 6 -8 10 -10 10 -2
0 -7 -4 -10 -10z"/>
<path d="M832 1000 c0 -14 2 -19 5 -12 2 6 2 18 0 25 -3 6 -5 1 -5 -13z"/>
<path d="M2900 1009 c0 -5 5 -7 10 -4 6 3 10 8 10 11 0 2 -4 4 -10 4 -5 0 -10
-5 -10 -11z"/>
<path d="M574 997 c3 -10 6 -30 6 -44 l0 -25 19 23 c18 22 18 25 3 33 -10 5
-21 14 -25 20 -5 7 -6 4 -3 -7z"/>
<path d="M646 981 c-11 -12 -17 -23 -15 -25 8 -8 41 23 37 34 -2 7 -11 3 -22
-9z"/>
<path d="M1159 958 c4 -28 6 -29 9 -9 2 13 0 27 -5 32 -6 6 -7 -3 -4 -23z"/>
<path d="M1456 981 c9 -9 34 -9 34 -1 0 5 -9 8 -20 7 -10 -1 -17 -3 -14 -6z"/>
<path d="M1581 967 c-13 -21 -12 -21 5 -5 10 10 16 20 13 22 -3 3 -11 -5 -18
-17z"/>
<path d="M1772 968 c3 -7 -4 -32 -15 -56 -10 -24 -17 -46 -14 -48 4 -5 47 92
47 107 0 5 -5 9 -11 9 -6 0 -9 -6 -7 -12z"/>
<path d="M2087 959 c4 -13 8 -18 11 -10 2 7 -1 18 -6 23 -8 8 -9 4 -5 -13z"/>
<path d="M2992 955 c0 -16 2 -22 5 -12 2 9 2 23 0 30 -3 6 -5 -1 -5 -18z"/>
<path d="M830 950 c0 -5 5 -10 10 -10 6 0 10 5 10 10 0 6 -4 10 -10 10 -5 0
-10 -4 -10 -10z"/>
<path d="M1107 940 c-3 -11 -1 -23 4 -26 5 -3 9 6 9 20 0 31 -6 34 -13 6z"/>
<path d="M1311 947 c-7 -10 -11 -17 -7 -17 3 0 -2 -9 -11 -20 -9 -10 -17 -27
-19 -37 -1 -10 -5 -27 -9 -38 -8 -20 -8 -20 13 -1 12 11 22 28 22 39 0 11 7
25 16 31 9 7 14 22 12 36 -3 21 -4 22 -17 7z"/>
<path d="M1425 950 c-4 -6 1 -10 9 -10 9 0 16 -4 16 -10 0 -13 -16 -13 -40 0
-16 8 -18 7 -14 -4 12 -32 64 -25 64 9 0 16 -27 27 -35 15z"/>
<path d="M1792 875 c-12 -47 -22 -96 -23 -108 0 -12 -3 -16 -6 -9 -5 13 -23 7
-23 -9 0 -6 5 -7 10 -4 15 9 12 -9 -6 -31 -15 -19 -16 -19 -9 1 4 12 3 16 -3
10 -13 -14 -54 -116 -49 -121 2 -2 12 16 22 41 11 25 27 48 37 51 10 3 21 16
24 29 7 27 34 56 34 36 0 -8 8 -10 21 -6 15 5 19 4 15 -4 -4 -6 -1 -11 8 -11
13 0 56 57 56 74 0 18 -20 2 -26 -20 -5 -21 -11 -25 -37 -22 -31 3 -31 3 -28
56 1 29 6 65 11 81 4 16 5 34 1 40 -4 6 -17 -27 -29 -74z"/>
<path d="M670 935 c-8 -10 -24 -14 -42 -11 -24 4 -27 2 -18 -9 6 -8 18 -11 26
-8 8 3 20 0 28 -6 11 -9 15 -6 18 19 5 35 5 35 -12 15z"/>
<path d="M1840 931 c0 -5 9 -11 20 -14 13 -3 20 0 20 9 0 8 -9 14 -20 14 -11
0 -20 -4 -20 -9z"/>
<path d="M2300 921 c0 -11 17 -27 43 -40 57 -30 82 -49 73 -58 -4 -4 -20 -2
-37 4 -26 10 -29 10 -19 -3 15 -17 56 -19 66 -3 7 12 -30 51 -59 62 -11 4 -21
16 -24 26 -7 26 -43 35 -43 12z"/>
<path d="M2900 910 c0 -16 3 -30 8 -30 4 0 7 14 7 30 0 17 -3 30 -7 30 -5 0
-8 -13 -8 -30z"/>
<path d="M831 914 c0 -11 3 -14 6 -6 3 7 2 16 -1 19 -3 4 -6 -2 -5 -13z"/>
<path d="M1666 905 c-10 -15 -15 -32 -13 -38 2 -7 12 3 21 21 21 41 15 53 -8
17z"/>
<path d="M938 913 c7 -3 16 -2 19 1 4 3 -2 6 -13 5 -11 0 -14 -3 -6 -6z"/>
<path d="M1933 905 c6 -7 15 -11 20 -8 13 8 7 19 -13 20 -16 1 -17 -1 -7 -12z"/>
<path d="M2005 910 c-4 -6 14 -9 44 -9 28 1 48 6 45 10 -7 12 -81 11 -89 -1z"/>
<path d="M2196 898 c-3 -13 -5 -32 -5 -43 1 -11 5 -2 10 19 10 42 6 62 -5 24z"/>
<path d="M1337 895 c-8 -20 -4 -29 11 -24 5 2 6 13 2 23 -6 19 -7 19 -13 1z"/>
<path d="M1714 873 c-5 -21 -9 -45 -10 -53 -1 -17 -11 -44 -26 -76 -5 -11 -9
-27 -8 -35 4 -28 0 -40 -12 -33 -7 4 -8 3 -4 -4 7 -12 -54 -132 -66 -129 -5 1
-31 -52 -58 -117 -51 -122 -61 -151 -35 -106 11 21 15 22 20 8 12 -31 -10 -55
-47 -50 l-33 5 27 -22 c14 -11 31 -21 37 -21 6 0 11 -7 11 -16 0 -9 -6 -14
-12 -11 -7 2 -26 -2 -43 -9 -17 -7 -38 -9 -50 -4 -22 8 -53 -14 -35 -25 6 -3
10 -24 10 -46 0 -25 -4 -38 -10 -34 -6 4 -10 3 -9 -2 4 -20 -14 -72 -23 -67
-18 11 -188 15 -188 4 0 -5 21 -11 48 -12 26 -1 65 -3 87 -4 22 -1 42 -3 45
-4 3 -1 15 -3 27 -6 20 -3 21 -1 13 22 -7 18 -6 32 2 47 l13 22 3 -23 c4 -26
17 -29 26 -6 8 22 8 24 -8 24 -11 0 -12 8 -7 33 5 18 7 40 5 50 -2 14 1 15 18
6 11 -6 23 -7 27 -3 3 5 14 16 25 24 16 13 16 11 -3 -20 -24 -39 -26 -50 -10
-50 5 0 8 4 5 9 -3 4 6 21 19 37 14 16 25 24 25 17 0 -6 -4 -14 -9 -17 -4 -3
-9 -45 -9 -93 -1 -63 2 -83 9 -71 5 10 10 47 10 83 1 36 5 65 9 65 5 0 7 -37
4 -82 -4 -61 -2 -80 6 -72 6 6 12 47 13 91 l2 80 48 22 c26 12 73 26 104 31
63 11 389 2 414 -11 16 -8 48 -103 56 -169 7 -50 23 -62 23 -17 0 20 4 37 9
37 5 0 14 14 20 31 6 17 14 29 18 27 5 -2 21 9 37 24 22 22 25 28 12 28 -10 0
-39 -23 -67 -52 -38 -40 -49 -47 -49 -31 0 10 10 30 21 42 16 17 19 25 10 31
-7 4 -11 11 -9 15 1 5 -5 9 -16 11 -14 2 -16 0 -7 -9 13 -13 15 -57 2 -57 -13
0 -22 73 -10 81 19 12 -5 19 -102 29 -52 5 -133 17 -181 25 -48 7 -143 14
-210 15 -149 1 -149 1 -118 -12 14 -6 77 -11 140 -10 63 0 102 -2 85 -4 -16
-2 -61 -9 -100 -16 -38 -6 -74 -11 -78 -10 -5 2 -6 -2 -2 -8 6 -9 2 -12 -27
-14 -7 -1 -16 -5 -20 -11 -5 -6 -8 -4 -8 5 0 13 -1 13 -10 0 -8 -13 -10 -13
-10 1 0 9 10 20 23 24 60 21 61 23 7 24 -30 1 -62 6 -70 12 -13 9 -13 10 0 7
17 -3 140 90 140 106 0 5 -6 3 -12 -6 -20 -24 -78 -60 -78 -49 0 6 15 20 33
31 21 13 26 20 14 20 -9 0 -25 -9 -34 -19 -16 -20 -33 -19 -33 0 0 6 4 7 10 4
6 -3 7 1 4 9 -3 9 10 45 30 80 22 39 34 71 30 83 -4 14 -4 15 4 4 7 -10 16 -2
37 35 16 27 33 58 40 69 18 31 35 86 25 80 -12 -7 -12 -3 -4 20 6 13 9 14 16
3 6 -9 7 -5 3 11 -5 15 -3 21 3 17 6 -4 11 2 11 11 0 10 3 44 6 76 7 65 1 75
-11 20z"/>
<path d="M1830 890 c0 -9 -3 -31 -6 -47 -5 -25 -2 -31 15 -36 13 -3 21 0 21 8
0 7 7 18 16 25 12 11 18 10 32 -3 19 -19 16 -25 -64 -148 -32 -48 -44 -77 -44
-103 l0 -36 49 0 c27 0 63 -3 80 -6 31 -6 31 -6 31 35 0 37 -2 41 -25 41 -14
0 -25 -4 -25 -10 0 -5 -13 -10 -30 -10 -16 0 -30 2 -30 4 0 3 27 47 60 98 33
51 60 102 60 114 0 28 -46 84 -69 84 -9 0 -23 -6 -30 -12 -8 -8 -11 -8 -8 -2
4 7 -2 14 -13 17 -14 4 -20 0 -20 -13z m40 -24 c0 -2 -7 -9 -15 -16 -13 -11
-14 -10 -9 4 5 14 24 23 24 12z m31 -139 c-10 -9 -11 -8 -5 6 3 10 9 15 12 12
3 -3 0 -11 -7 -18z m-62 -156 c-15 -5 -22 6 -14 19 6 9 10 9 16 -1 5 -8 4 -15
-2 -18z"/>
<path d="M2161 894 c0 -11 3 -14 6 -6 3 7 2 16 -1 19 -3 4 -6 -2 -5 -13z"/>
<path d="M1960 883 c0 -4 8 -17 16 -28 15 -20 16 -20 12 4 -3 22 -28 44 -28
24z"/>
<path d="M2009 887 c0 -1 -3 -23 -5 -49 -5 -43 -3 -48 14 -48 11 0 22 9 25 20
3 11 12 20 21 20 39 0 38 -82 -2 -88 -30 -5 -30 -44 1 -57 40 -18 32 -105 -9
-105 -8 0 -16 11 -20 24 -3 14 -12 27 -19 30 -20 7 -33 -83 -14 -95 9 -5 16
-3 20 8 5 15 6 15 12 0 10 -26 50 -20 80 11 31 33 36 88 12 126 -14 21 -14 24
0 36 9 8 15 29 15 57 0 75 -59 128 -99 91 -9 -8 -11 -8 -8 -2 4 7 0 14 -8 18
-8 3 -15 4 -16 3z m76 -37 c3 -6 -1 -7 -9 -4 -18 7 -21 14 -7 14 6 0 13 -4 16
-10z m15 -135 c-7 -9 -15 -13 -17 -11 -7 7 7 26 19 26 6 0 6 -6 -2 -15z"/>
<path d="M2125 866 c20 -30 25 -32 25 -11 0 8 -9 19 -21 25 -20 11 -20 11 -4
-14z"/>
<path d="M1594 852 c-10 -15 -19 -29 -20 -32 -7 -33 -18 -71 -29 -100 -7 -19
-21 -75 -30 -125 -9 -49 -23 -115 -31 -145 -36 -137 -42 -206 -11 -118 8 24
31 81 50 128 19 47 38 94 41 105 6 16 9 17 16 5 6 -8 10 -12 10 -7 0 4 -5 16
-11 26 -13 20 -4 75 10 66 5 -3 14 16 20 43 14 55 35 95 26 47 -5 -25 -4 -27
5 -12 6 9 10 35 8 58 -3 38 -6 33 -63 -101 -64 -151 -85 -187 -56 -93 10 32
26 93 36 136 9 42 22 83 28 90 29 30 37 46 29 51 -6 3 -18 -7 -28 -22z"/>
<path d="M2460 861 c0 -5 5 -13 10 -16 6 -3 10 -2 10 4 0 5 -4 13 -10 16 -5 3
-10 2 -10 -4z"/>
<path d="M651 855 c0 -5 6 -19 14 -29 12 -16 18 -17 27 -8 9 9 8 12 -5 12 -9
0 -21 8 -26 18 -6 9 -10 13 -10 7z"/>
<path d="M2540 841 c0 -11 4 -22 9 -25 4 -3 6 6 3 19 -5 30 -12 33 -12 6z"/>
<path d="M1470 841 c8 -5 33 -11 55 -15 25 -3 33 -3 20 3 -29 12 -93 22 -75
12z"/>
<path d="M2270 822 c0 -6 5 -14 10 -17 6 -4 7 -11 4 -17 -4 -7 -2 -8 5 -4 9 6
9 12 -1 24 -7 10 -14 19 -15 21 -2 2 -3 -1 -3 -7z"/>
<path d="M1490 816 c0 -17 22 -56 31 -56 8 0 7 5 -2 17 -11 13 -11 17 -1 20
16 6 6 23 -14 23 -8 0 -14 -2 -14 -4z"/>
<path d="M882 707 c2 -63 7 -102 14 -104 6 -2 14 6 17 19 3 13 10 38 15 56 12
36 6 44 -8 10 -7 -18 -9 -8 -8 37 l1 60 67 0 c38 0 71 -3 75 -6 3 -4 21 -3 40
1 44 10 53 -1 53 -67 l1 -53 -35 0 c-19 0 -34 5 -34 10 0 6 -7 10 -16 10 -10
0 -14 -7 -12 -22 3 -20 8 -23 40 -20 20 2 46 -2 57 -8 21 -10 21 -9 21 85 l0
95 -145 -1 -146 -1 3 -101z"/>
<path d="M2161 794 c0 -11 3 -14 6 -6 3 7 2 16 -1 19 -3 4 -6 -2 -5 -13z"/>
<path d="M2052 787 c-13 -15 1 -42 17 -33 13 9 15 33 2 40 -5 3 -13 0 -19 -7z"/>
<path d="M2310 790 c0 -6 7 -10 15 -10 8 0 15 2 15 4 0 2 -7 6 -15 10 -8 3
-15 1 -15 -4z"/>
<path d="M2385 790 c-3 -5 1 -10 10 -10 9 0 13 5 10 10 -3 6 -8 10 -10 10 -2
0 -7 -4 -10 -10z"/>
<path d="M1980 780 c0 -8 -22 -49 -49 -90 -27 -41 -48 -77 -45 -79 2 -3 10 3
17 12 10 14 18 15 44 8 23 -7 33 -6 37 4 3 10 -4 12 -27 8 -28 -4 -30 -3 -15
9 9 7 18 22 20 33 2 11 9 19 16 18 6 -2 9 3 7 10 -3 6 -1 19 5 27 8 13 11 12
24 -5 15 -20 15 -20 16 3 0 12 -5 22 -11 22 -7 0 -18 8 -25 18 -11 14 -13 14
-14 2z m-30 -110 c0 -5 -4 -10 -10 -10 -5 0 -10 5 -10 10 0 6 5 10 10 10 6 0
10 -4 10 -10z"/>
<path d="M2831 780 c0 -8 4 -22 9 -30 12 -18 12 -2 0 25 -6 13 -9 15 -9 5z"/>
<path d="M2891 775 c0 -11 4 -27 9 -35 9 -13 10 -13 9 0 0 8 -4 24 -9 35 -9
20 -9 20 -9 0z"/>
<path d="M2580 776 c0 -2 7 -9 15 -16 9 -7 15 -8 15 -2 0 5 -7 12 -15 16 -8 3
-15 4 -15 2z"/>
<path d="M1006 755 c-19 -15 -19 -15 2 -15 15 0 22 -6 22 -20 0 -11 7 -20 15
-20 19 0 19 14 -1 34 -8 9 -12 20 -9 26 9 15 -7 12 -29 -5z"/>
<path d="M1252 763 c-10 -4 -10 -8 -1 -19 13 -16 29 -10 29 12 0 15 -6 16 -28
7z"/>
<path d="M2270 762 c0 -12 40 -33 51 -27 15 10 0 25 -18 18 -11 -4 -14 -3 -9
5 4 7 1 12 -8 12 -9 0 -16 -3 -16 -8z"/>
<path d="M936 745 c-3 -8 -1 -15 4 -15 6 0 10 7 10 15 0 8 -2 15 -4 15 -2 0
-6 -7 -10 -15z"/>
<path d="M2153 725 c-8 -24 -9 -43 -3 -49 11 -11 23 32 18 65 -2 20 -5 17 -15
-16z"/>
<path d="M472 714 c0 -42 5 -41 13 4 3 18 1 32 -4 32 -5 0 -9 -16 -9 -36z"/>
<path d="M1481 736 c-8 -9 -8 -16 -2 -20 6 -4 15 3 21 14 12 23 -2 27 -19 6z"/>
<path d="M1503 693 c-12 -32 -25 -69 -28 -83 -6 -24 -6 -24 10 -5 8 11 20 38
26 60 5 22 14 50 19 63 5 12 6 22 2 22 -4 0 -17 -26 -29 -57z"/>
<path d="M1805 689 c-28 -43 -46 -107 -26 -94 6 3 11 16 11 29 0 12 14 41 31
64 17 23 26 42 21 42 -5 0 -22 -19 -37 -41z"/>
<path d="M976 713 c-11 -11 -6 -23 9 -23 8 0 15 4 15 9 0 13 -16 22 -24 14z"/>
<path d="M680 695 c0 -8 4 -15 10 -15 5 0 7 7 4 15 -4 8 -8 15 -10 15 -2 0 -4
-7 -4 -15z"/>
<path d="M1324 688 l-19 -23 25 20 c14 11 27 21 29 22 2 2 0 3 -6 3 -5 0 -18
-10 -29 -22z"/>
<path d="M2017 675 c-5 -12 -4 -21 3 -23 6 -2 16 -15 21 -29 10 -27 31 -27 35
1 1 10 -7 21 -21 26 -13 5 -25 17 -27 27 -3 17 -4 16 -11 -2z"/>
<path d="M954 655 c-4 -9 -3 -19 0 -23 9 -8 42 12 39 24 -4 16 -33 16 -39 -1z"/>
<path d="M1357 653 c-4 -3 -7 -11 -7 -17 0 -6 5 -5 12 2 6 6 9 14 7 17 -3 3
-9 2 -12 -2z"/>
<path d="M1716 633 c-6 -14 -5 -15 5 -6 7 7 10 15 7 18 -3 3 -9 -2 -12 -12z"/>
<path d="M470 621 c0 -6 4 -13 10 -16 6 -3 7 1 4 9 -7 18 -14 21 -14 7z"/>
<path d="M1381 617 c-7 -9 -11 -23 -8 -32 4 -8 2 -17 -3 -20 -12 -8 -8 -66 5
-62 6 2 11 16 13 31 3 25 7 28 38 24 21 -2 34 0 34 7 0 20 -11 24 -35 15 -22
-8 -24 -6 -27 22 -3 28 -4 30 -17 15z"/>
<path d="M1418 623 c7 -3 16 -2 19 1 4 3 -2 6 -13 5 -11 0 -14 -3 -6 -6z"/>
<path d="M1102 604 c-15 -17 -9 -44 9 -44 7 0 9 3 6 7 -4 3 -2 12 5 20 16 19
-3 35 -20 17z"/>
<path d="M1300 610 c0 -5 9 -10 19 -10 22 0 23 -28 2 -70 l-12 -25 20 24 c21
24 26 47 15 75 -7 17 -44 22 -44 6z"/>
<path d="M934 603 c10 -11 37 -12 30 -2 -3 5 -12 9 -21 9 -9 0 -13 -3 -9 -7z"/>
<path d="M2410 591 c-6 -11 -6 -22 -1 -25 5 -3 11 5 13 19 6 30 2 32 -12 6z"/>
<path d="M990 591 c0 -6 5 -13 10 -16 6 -3 10 1 10 9 0 9 -4 16 -10 16 -5 0
-10 -4 -10 -9z"/>
<path d="M1042 580 c7 -11 16 -16 21 -11 12 12 0 31 -19 31 -12 0 -12 -3 -2
-20z"/>
<path d="M956 571 c-4 -7 -5 -15 -2 -18 9 -9 19 4 14 18 -4 11 -6 11 -12 0z"/>
<path d="M1245 569 c-4 -6 -5 -12 -2 -15 2 -3 7 2 10 11 7 17 1 20 -8 4z"/>
<path d="M477 563 c-4 -3 -7 -13 -7 -22 1 -13 3 -13 11 2 11 19 8 33 -4 20z"/>
<path d="M1022 549 c1 -13 8 -23 13 -21 15 3 12 35 -3 40 -9 3 -13 -3 -10 -19z"/>
<path d="M1153 563 c9 -2 23 -2 30 0 6 3 -1 5 -18 5 -16 0 -22 -2 -12 -5z"/>
<path d="M1477 557 c-11 -29 -9 -43 4 -30 6 6 9 19 7 29 -3 18 -4 18 -11 1z"/>
<path d="M1756 554 c-3 -9 1 -25 9 -37 14 -21 15 -20 15 16 0 38 -13 50 -24
21z"/>
<path d="M2893 530 c-1 -19 2 -28 4 -20 3 8 11 21 17 29 8 11 8 13 -1 8 -6 -4
-13 -1 -16 5 -2 7 -4 -3 -4 -22z"/>
<path d="M1070 531 c0 -12 -5 -21 -11 -21 -5 0 -7 -5 -3 -12 4 -6 0 -16 -9
-23 -14 -10 -11 -16 19 -54 19 -24 34 -39 34 -34 0 6 -10 23 -22 38 -21 27
-21 30 -6 72 9 24 12 46 7 49 -5 3 -9 -4 -9 -15z"/>
<path d="M2120 525 c-19 -20 -33 -25 -65 -24 -22 1 -48 -2 -57 -6 -15 -6 -18
-2 -19 21 -1 16 -3 22 -6 13 -5 -20 -105 -37 -111 -20 -6 17 -72 14 -72 -3 0
-10 13 -16 42 -18 23 -2 43 -7 44 -13 3 -13 -63 -68 -82 -68 -8 0 -14 -4 -14
-9 0 -4 -6 -8 -14 -8 -8 0 -31 -10 -51 -21 -29 -18 -39 -19 -48 -9 -9 10 -9
11 2 5 10 -6 12 -4 6 5 -6 10 -11 10 -20 -3 -7 -10 -16 -17 -21 -17 -5 0 -22
-11 -39 -25 -22 -18 -26 -24 -13 -25 9 0 19 4 23 9 3 5 30 15 60 21 30 6 55
15 55 20 0 4 11 10 25 12 22 5 24 3 13 -11 -7 -9 2 -3 20 12 19 15 37 27 41
27 3 0 24 18 46 40 48 48 95 76 104 62 3 -6 18 -14 34 -17 15 -4 24 -11 21
-16 -10 -17 15 -9 28 9 16 23 68 38 69 20 0 -7 7 2 15 21 19 43 14 48 -16 16z"/>
<path d="M2978 543 c7 -3 16 -2 19 1 4 3 -2 6 -13 5 -11 0 -14 -3 -6 -6z"/>
<path d="M53 506 c1 -16 8 -31 15 -34 16 -5 15 20 -2 44 -14 18 -15 17 -13
-10z"/>
<path d="M930 516 c-3 -2 -69 -6 -147 -7 -79 -2 -143 -7 -143 -11 0 -4 44 -5
99 -2 128 9 151 3 151 -36 0 -34 15 -40 23 -9 3 11 12 19 19 17 7 -2 14 0 16
4 2 12 -13 50 -18 44z"/>
<path d="M1000 507 c0 -8 6 -17 14 -20 9 -4 13 0 12 11 -3 20 -26 29 -26 9z"/>
<path d="M2831 504 c0 -11 3 -14 6 -6 3 7 2 16 -1 19 -3 4 -6 -2 -5 -13z"/>
<path d="M1143 498 c0 -7 -3 -27 -7 -45 -10 -42 11 -54 25 -14 12 33 33 41 43
16 3 -8 3 -23 -1 -32 -3 -10 -2 -15 2 -11 11 10 38 -29 30 -42 -4 -6 -2 -16 3
-23 15 -19 10 -81 -6 -93 -20 -15 -26 -60 -9 -67 10 -4 12 3 9 23 -3 20 2 32
15 41 17 10 19 18 11 68 -5 31 -16 80 -24 109 -13 44 -19 52 -39 52 -29 0 -42
17 -18 23 12 3 9 5 -8 6 -14 0 -26 -4 -26 -11z"/>
<path d="M1424 501 c14 -5 16 -10 7 -15 -6 -4 -18 -5 -26 -2 -18 7 -27 -7 -19
-29 5 -13 9 -14 15 -4 12 19 19 7 12 -20 -4 -17 -8 -19 -14 -9 -6 9 -8 3 -8
-17 0 -16 3 -24 6 -17 2 6 9 12 15 12 13 0 1 -52 -14 -61 -6 -4 -8 -15 -4 -24
11 -29 20 -9 42 96 l21 99 -26 -1 c-22 0 -23 -1 -7 -8z"/>
<path d="M1711 486 c-26 -28 -18 -35 13 -11 10 7 16 19 14 25 -2 6 -14 0 -27
-14z"/>
<path d="M583 493 c9 -2 25 -2 35 0 9 3 1 5 -18 5 -19 0 -27 -2 -17 -5z"/>
<path d="M2250 485 c0 -8 2 -15 4 -15 2 0 6 7 10 15 3 8 1 15 -4 15 -6 0 -10
-7 -10 -15z"/>
<path d="M1298 463 c5 -21 7 -23 10 -9 2 10 0 22 -6 28 -6 6 -7 0 -4 -19z"/>
<path d="M1345 479 c-4 -6 -5 -12 -2 -15 2 -3 7 2 10 11 7 17 1 20 -8 4z"/>
<path d="M122 450 c0 -19 2 -27 5 -17 2 9 2 25 0 35 -3 9 -5 1 -5 -18z"/>
<path d="M495 470 c-19 -7 -19 -7 3 -14 27 -9 34 -5 24 10 -4 7 -16 8 -27 4z"/>
<path d="M547 463 c6 -15 22 -17 42 -4 9 6 4 10 -17 13 -22 3 -29 1 -25 -9z"/>
<path d="M670 469 c0 -6 -9 -8 -20 -4 -22 7 -29 -18 -8 -31 7 -4 8 -3 4 4 -4
7 -1 12 6 12 7 0 22 7 32 15 17 13 18 15 3 15 -9 0 -17 -5 -17 -11z"/>
<path d="M712 468 c3 -7 17 -14 32 -16 20 -3 27 0 24 10 -3 7 -17 14 -32 16
-20 3 -27 0 -24 -10z"/>
<path d="M793 474 c-7 -3 -9 -12 -6 -20 4 -10 8 -12 12 -5 4 6 17 8 30 4 19
-5 22 -11 17 -34 -3 -18 -1 -29 8 -32 21 -8 23 -2 17 45 -5 39 -9 43 -36 45
-16 1 -35 0 -42 -3z"/>
<path d="M2295 470 c-3 -5 1 -10 10 -10 9 0 13 5 10 10 -3 6 -8 10 -10 10 -2
0 -7 -4 -10 -10z"/>
<path d="M1090 458 c0 -9 5 -20 10 -23 13 -8 13 5 0 25 -8 13 -10 13 -10 -2z"/>
<path d="M990 451 c0 -5 7 -12 16 -15 24 -9 28 -7 14 9 -14 17 -30 20 -30 6z"/>
<path d="M943 444 c3 -3 1 -17 -4 -31 -5 -14 -12 -57 -15 -94 -4 -58 -2 -69
11 -69 9 0 15 9 15 23 0 29 26 67 46 67 22 0 12 -23 -15 -36 -13 -7 -18 -15
-13 -18 14 -9 42 4 42 19 0 25 27 37 52 24 17 -9 19 -13 8 -16 -41 -12 -43
-14 -32 -25 7 -7 18 -5 39 10 29 20 33 22 57 22 8 0 19 14 25 31 14 40 14 39
-4 39 -8 0 -15 -9 -15 -19 0 -21 -14 -34 -43 -38 -19 -3 -73 44 -95 82 -7 13
-11 15 -12 6 0 -8 9 -25 21 -37 24 -26 17 -53 -8 -32 -12 10 -17 9 -28 -5 -18
-25 -39 -22 -30 6 15 46 17 97 4 97 -7 0 -10 -3 -6 -6z"/>
<path d="M1675 439 c-4 -6 -5 -12 -2 -15 2 -3 7 2 10 11 7 17 1 20 -8 4z"/>
<path d="M5 430 c-3 -5 1 -10 10 -10 9 0 13 5 10 10 -3 6 -8 10 -10 10 -2 0
-7 -4 -10 -10z"/>
<path d="M1940 420 c-26 -22 -45 -27 -33 -7 4 6 -11 -2 -32 -19 -22 -17 -62
-46 -90 -63 -43 -28 -46 -32 -20 -26 75 16 102 27 136 58 20 17 49 42 65 54
20 15 24 22 13 22 -9 1 -26 -8 -39 -19z m-40 -29 c0 -5 -7 -12 -16 -15 -14 -5
-15 -4 -4 9 14 17 20 19 20 6z"/>
<path d="M1057 385 c15 -19 32 -35 37 -35 6 0 -5 16 -24 35 -43 45 -49 45 -13
0z"/>
<path d="M1330 411 c0 -5 7 -12 16 -15 14 -5 15 -4 4 9 -14 17 -20 19 -20 6z"/>
<path d="M0 396 c0 -8 4 -17 9 -20 5 -4 7 3 4 14 -6 23 -13 26 -13 6z"/>
<path d="M456 402 c-3 -5 1 -9 9 -9 8 0 15 4 15 9 0 4 -4 8 -9 8 -6 0 -12 -4
-15 -8z"/>
<path d="M607 389 c4 -13 8 -18 11 -10 2 7 -1 18 -6 23 -8 8 -9 4 -5 -13z"/>
<path d="M1640 395 c-20 -24 -6 -28 15 -5 10 11 13 20 8 20 -6 0 -16 -7 -23
-15z"/>
<path d="M1307 379 c4 -13 8 -18 11 -10 2 7 -1 18 -6 23 -8 8 -9 4 -5 -13z"/>
<path d="M1536 383 c-6 -14 -5 -15 5 -6 7 7 10 15 7 18 -3 3 -9 -2 -12 -12z"/>
<path d="M2060 389 c0 -5 5 -7 10 -4 6 3 10 8 10 11 0 2 -4 4 -10 4 -5 0 -10
-5 -10 -11z"/>
<path d="M70 369 c0 -5 5 -7 10 -4 6 3 10 8 10 11 0 2 -4 4 -10 4 -5 0 -10 -5
-10 -11z"/>
<path d="M437 360 c-3 -11 -1 -23 4 -26 5 -3 9 -1 9 5 0 5 3 16 6 25 3 9 2 16
-4 16 -5 0 -12 -9 -15 -20z"/>
<path d="M681 354 c0 -11 3 -14 6 -6 3 7 2 16 -1 19 -3 4 -6 -2 -5 -13z"/>
<path d="M829 338 c-7 -37 5 -101 19 -106 8 -2 12 9 12 40 0 50 -9 88 -20 88
-4 0 -9 -10 -11 -22z"/>
<path d="M1327 353 c-4 -3 -7 -11 -7 -17 0 -6 5 -5 12 2 6 6 9 14 7 17 -3 3
-9 2 -12 -2z"/>
<path d="M1365 338 c-14 -21 -14 -24 1 -35 14 -10 13 -13 -10 -28 -15 -10 -37
-15 -51 -13 -15 3 -25 1 -25 -7 0 -6 13 -12 30 -12 17 0 30 4 30 9 0 5 4 7 9
4 16 -10 35 26 36 65 0 22 -1 39 -2 39 -1 0 -9 -10 -18 -22z"/>
<path d="M2479 343 c-13 -16 -12 -17 4 -4 16 13 21 21 13 21 -2 0 -10 -8 -17
-17z"/>
<path d="M1726 333 c-6 -14 -5 -15 5 -6 7 7 10 15 7 18 -3 3 -9 -2 -12 -12z"/>
<path d="M1982 318 c5 -15 28 -23 28 -10 0 5 -7 13 -16 16 -10 4 -14 1 -12 -6z"/>
<path d="M2102 305 c0 -16 2 -22 5 -12 2 9 2 23 0 30 -3 6 -5 -1 -5 -18z"/>
<path d="M1688 313 c7 -3 16 -2 19 1 4 3 -2 6 -13 5 -11 0 -14 -3 -6 -6z"/>
<path d="M21 294 c0 -11 3 -14 6 -6 3 7 2 16 -1 19 -3 4 -6 -2 -5 -13z"/>
<path d="M2511 294 c0 -11 3 -14 6 -6 3 7 2 16 -1 19 -3 4 -6 -2 -5 -13z"/>
<path d="M2603 303 c-7 -2 -13 -10 -13 -16 0 -8 3 -8 11 0 6 6 18 9 25 6 8 -3
14 0 14 6 0 11 -16 13 -37 4z"/>
<path d="M646 274 c3 -27 14 -47 14 -25 0 7 5 9 13 5 9 -5 9 -4 0 6 -6 7 -9
19 -6 26 3 8 -1 14 -10 14 -9 0 -13 -8 -11 -26z"/>
<path d="M441 274 c0 -11 3 -14 6 -6 3 7 2 16 -1 19 -3 4 -6 -2 -5 -13z"/>
<path d="M2191 268 c2 -2 23 -20 46 -41 26 -25 43 -35 48 -28 3 6 3 10 -2 9
-13 -4 -53 35 -46 45 3 6 1 7 -5 3 -6 -3 -13 -2 -17 4 -3 5 -11 10 -17 10 -6
0 -9 -1 -7 -2z"/>
<path d="M2515 259 c-11 -16 -1 -19 13 -3 7 8 8 14 3 14 -5 0 -13 -5 -16 -11z"/>
<path d="M2583 254 c-7 -7 -13 -19 -13 -26 0 -7 7 -2 16 10 18 26 16 37 -3 16z"/>
<path d="M1383 252 c-7 -4 -9 -13 -4 -21 6 -10 10 -9 15 5 8 20 4 25 -11 16z"/>
<path d="M1425 250 c3 -5 8 -10 11 -10 2 0 4 5 4 10 0 6 -5 10 -11 10 -5 0 -7
-4 -4 -10z"/>
<path d="M2732 240 c0 -14 2 -19 5 -12 2 6 2 18 0 25 -3 6 -5 1 -5 -13z"/>
<path d="M85 240 c3 -5 8 -10 11 -10 2 0 4 5 4 10 0 6 -5 10 -11 10 -5 0 -7
-4 -4 -10z"/>
<path d="M1092 220 c0 -14 2 -19 5 -12 2 6 2 18 0 25 -3 6 -5 1 -5 -13z"/>
<path d="M1328 233 c-15 -4 -27 -33 -14 -33 2 0 13 -3 23 -6 15 -5 16 -4 3 5
-13 10 -13 13 4 26 20 15 16 17 -16 8z"/>
<path d="M1271 195 c-1 -26 -4 -35 -10 -26 -6 9 -11 10 -15 2 -4 -6 -4 -11 1
-11 16 -1 44 -28 47 -47 3 -14 -2 -19 -20 -21 -13 -1 -24 3 -24 8 0 6 -4 10
-10 10 -14 0 -12 -11 5 -34 11 -15 17 -16 28 -7 8 6 22 9 31 5 20 -8 20 4 0
69 -27 88 -33 97 -33 52z"/>
<path d="M2370 206 c0 -8 5 -18 10 -21 6 -3 10 3 10 14 0 12 -4 21 -10 21 -5
0 -10 -6 -10 -14z"/>
<path d="M2435 210 c-13 -6 -15 -9 -5 -9 8 0 22 4 30 9 18 12 2 12 -25 0z"/>
<path d="M910 200 c0 -5 7 -10 16 -10 8 0 12 5 9 10 -3 6 -10 10 -16 10 -5 0
-9 -4 -9 -10z"/>
<path d="M1604 189 c-35 -16 -41 -22 -37 -44 l5 -25 21 26 c11 15 34 35 51 45
40 24 14 23 -40 -2z"/>
<path d="M16 191 c-3 -5 3 -11 14 -14 21 -5 32 1 24 14 -7 12 -31 11 -38 0z"/>
<path d="M2657 193 c-4 -3 -7 -13 -7 -22 1 -13 3 -13 11 2 11 19 8 33 -4 20z"/>
<path d="M2325 170 c-3 -5 1 -10 10 -10 9 0 13 5 10 10 -3 6 -8 10 -10 10 -2
0 -7 -4 -10 -10z"/>
<path d="M2550 176 c0 -11 27 -36 39 -36 5 0 13 5 17 12 5 7 3 8 -5 4 -7 -5
-21 0 -32 10 -10 9 -19 14 -19 10z"/>
<path d="M60 160 c0 -5 5 -10 11 -10 5 0 7 5 4 10 -3 6 -8 10 -11 10 -2 0 -4
-4 -4 -10z"/>
<path d="M94 163 c3 -4 17 -8 29 -10 17 -2 19 -1 7 7 -17 11 -47 14 -36 3z"/>
<path d="M653 151 c0 -11 5 -18 9 -15 4 3 5 11 1 19 -7 21 -12 19 -10 -4z"/>
<path d="M2388 163 c-10 -2 -15 -10 -11 -19 7 -20 20 -17 26 6 3 11 4 19 4 19
-1 -1 -10 -3 -19 -6z"/>
<path d="M1195 150 c3 -5 8 -10 11 -10 2 0 4 5 4 10 0 6 -5 10 -11 10 -5 0 -7
-4 -4 -10z"/>
<path d="M1426 135 c-3 -9 -6 -22 -5 -28 0 -7 5 -1 10 12 5 13 8 26 5 28 -2 2
-6 -3 -10 -12z"/>
<path d="M1732 130 c0 -14 2 -19 5 -12 2 6 2 18 0 25 -3 6 -5 1 -5 -13z"/>
<path d="M2510 131 c0 -11 4 -22 9 -25 4 -3 6 6 3 19 -5 30 -12 33 -12 6z"/>
<path d="M2870 140 c0 -5 5 -10 11 -10 5 0 7 5 4 10 -3 6 -8 10 -11 10 -2 0
-4 -4 -4 -10z"/>
<path d="M1683 121 c0 -11 5 -17 9 -15 11 7 10 34 -1 34 -6 0 -9 -9 -8 -19z"/>
<path d="M535 120 c3 -5 11 -10 16 -10 6 0 7 5 4 10 -3 6 -11 10 -16 10 -6 0
-7 -4 -4 -10z"/>
<path d="M706 97 c3 -10 9 -15 12 -12 3 3 0 11 -7 18 -10 9 -11 8 -5 -6z"/>
<path d="M871 96 c-7 -8 -30 -17 -52 -21 -24 -4 -39 -12 -39 -21 0 -8 -7 -17
-15 -20 -8 -4 -15 -12 -15 -20 0 -12 4 -12 20 -2 11 7 20 21 20 31 0 15 6 17
34 12 29 -6 35 -4 41 14 4 12 15 21 26 21 11 0 17 5 14 10 -9 14 -20 12 -34
-4z"/>
<path d="M1586 97 c-11 -8 -17 -19 -15 -25 2 -6 16 0 32 14 29 25 15 34 -17
11z"/>
<path d="M2375 90 c3 -5 13 -10 21 -10 8 0 12 5 9 10 -3 6 -13 10 -21 10 -8 0
-12 -4 -9 -10z"/>
<path d="M920 75 c0 -7 -6 -16 -12 -18 -7 -3 1 -6 19 -6 40 -1 48 11 17 26
-19 9 -24 8 -24 -2z"/>
<path d="M2339 73 c-13 -16 -12 -17 4 -4 9 7 17 15 17 17 0 8 -8 3 -21 -13z"/>
<path d="M727 62 c-10 -10 -17 -27 -17 -38 1 -13 5 -9 15 13 7 17 22 33 32 36
14 4 14 5 2 6 -9 0 -23 -7 -32 -17z"/>
<path d="M1050 61 c0 -6 5 -13 10 -16 6 -3 10 1 10 9 0 9 -4 16 -10 16 -5 0
-10 -4 -10 -9z"/>
<path d="M990 46 c0 -8 4 -18 10 -21 6 -4 7 1 3 11 -4 12 -3 15 5 10 7 -4 12
-2 12 3 0 6 -7 11 -15 11 -8 0 -15 -6 -15 -14z"/>
<path d="M1641 34 c-12 -27 -11 -28 4 -12 10 9 16 21 13 28 -2 7 -10 -1 -17
-16z"/>
<path d="M1560 26 c0 -21 5 -26 27 -26 14 0 23 3 20 7 -4 3 0 14 9 24 16 17
15 18 -9 6 -14 -6 -23 -16 -20 -21 4 -5 1 -6 -6 -2 -6 4 -9 11 -6 16 3 5 1 11
-5 15 -6 4 -10 -5 -10 -19z"/>
<path d="M1402 20 c0 -14 2 -19 5 -12 2 6 2 18 0 25 -3 6 -5 1 -5 -13z"/>
<path d="M2340 26 c0 -8 -6 -17 -12 -19 -8 -4 -9 -6 -2 -6 18 -1 37 26 24 34
-5 3 -10 0 -10 -9z"/>
<path d="M1095 20 c-3 -5 -1 -10 4 -10 6 0 11 5 11 10 0 6 -2 10 -4 10 -3 0
-8 -4 -11 -10z"/>
<path d="M814 9 c-16 -4 27 -6 96 -6 125 0 124 4 -1 9 -37 2 -80 0 -95 -3z"/>
<path d="M1998 3 c6 -2 18 -2 25 0 6 3 1 5 -13 5 -14 0 -19 -2 -12 -5z"/>
</g>
</svg>
